<?xml version="1.0" encoding="UTF-8"?>
<svg width="752pt" height="752pt" version="1.1" viewBox="0 0 752 752" xmlns="http://www.w3.org/2000/svg">
 <g>
  <path d="m260.45 343.8c13.734 1.4219 25.574-8.5234 26.992-21.785 1.4219-13.734-8.5234-25.574-21.785-26.992-13.734-1.4219-25.574 8.5234-26.992 21.785-1.4219 13.258 8.5234 25.574 21.785 26.992z"/>
  <path d="m185.62 445.62c-7.1055 0-12.785 5.6836-12.785 12.785 0 7.1055 5.6836 12.785 12.785 12.785l34.098 0.003906c5.6836 0 10.891-3.7891 12.312-9.4727l9.9453-33.625h18.469l-3.3164 28.414c-0.94531 7.1055 4.2617 13.734 11.367 14.207h1.4219c6.6289 0 12.312-4.7344 12.785-11.367l5.2109-43.098c0.47266-3.7891-0.94531-7.5781-3.3164-9.9453-2.3672-2.8398-6.1562-4.2617-9.9453-4.2617h-26.047l9.9453-23.68 16.574 7.1055c1.4219 0.94531 3.3164 0.94531 5.2109 0.94531h21.785l-5.6797 13.266c-0.94531 1.8945 0 3.7891 1.4219 4.7344l2.8398 1.4219c1.8945 0.94531 3.7891 0 4.7344-1.4219l8.5234-17.051c7.1055 0 12.785-5.6836 12.785-12.785 0-2.8398-0.94531-5.6836-2.8398-8.0508l9.9453-20.836c-1.4219-0.94531-2.8398-1.4219-4.2617-2.3672-1.4219-0.94531-2.8398-1.4219-4.7344-1.8945l-9.9453 19.891h-1.4219-30.309s-31.258-13.734-37.414-16.102-11.84-2.3672-17.52 0c-5.6836 2.3672-9.9453 7.5781-11.367 13.262l-12.785 42.148c-1.8945 6.6289-0.94531 13.734 3.3164 18.941 1.8945 2.8398 4.7344 5.2109 7.5781 6.6289l-5.6836 19.418z"/>
  <path d="m595.27 226.82h-438.54c-3.3164 0-5.6836 2.3672-5.6836 5.6836v34.098c0 3.3164 2.3672 5.6836 5.6836 5.6836h138.76c59.199 0 80.035 56.355 80.035 104.66 0 50.199-21.312 103.24-80.035 103.24h-138.76c-3.3164 0-5.6836 2.3672-5.6836 5.6836v33.625c0 3.3164 2.3672 5.6836 5.6836 5.6836h438.06c3.3164 0 5.6836-2.3672 5.6836-5.6836v-286.99c0.47266-3.3164-2.3711-5.6836-5.2109-5.6836zm-46.883 197.48-43.098 11.367c-0.94531 0.47266-1.8945 0.47266-2.8398 0.47266h-29.363-1.4219l-41.203-6.1562c-4.7344-0.94531-8.5234-4.7344-9.4727-9.4727l-5.6836-37.887c-0.47266-3.3164 0.47266-7.1055 2.8398-9.4727l20.836-21.312c1.4219-1.4219 2.8398-3.7891 2.8398-5.6836l3.7891-21.785c0.94531-4.2617 3.7891-7.5781 8.0508-8.9961l37.887-9.9453c2.8398-0.94531 5.6836-0.47266 8.0508 0.94531l29.836 16.574c3.7891 1.8945 5.6836 6.1562 5.6836 10.418l-0.94531 22.258c0 1.4219 0 3.3164 0.94531 4.7344l20.844 49.258c2.3711 6.1562-0.94531 13.262-7.5742 14.684z"/>
  <path d="m340.48 324.86-2.8398-1.4219c-1.8945-0.94531-3.7891 0-4.7344 1.4219l-1.4219 2.8398c-10.891-4.2617-21.312-5.2109-28.414-2.3672-1.4219 0.47266-1.4219 2.8398 0 3.3164 8.5234 2.3672 18.469 5.6836 27.941 10.418 9.9453 4.7344 18.469 9.9453 25.574 15.629 1.4219 0.94531 2.8398 0 2.3672-1.8945-1.8945-7.1055-8.9961-14.68-19.418-20.836l1.4219-2.8398c1.8906-1.4258 0.94141-3.793-0.47656-4.2656z"/>
  <path d="m473.56 363.69c-0.47266 1.8945 0.94531 4.2617 2.8398 4.2617h21.785c2.3672 0 3.7891-1.8945 2.8398-4.2617l-3.7891-12.312c-0.47266-1.4219-1.4219-2.3672-2.8398-2.3672h-13.734c-1.4219 0-2.8398 0.94531-2.8398 2.3672z"/>
  <path d="m518.55 388.32-3.7891-12.316c-0.47266-1.4219-1.4219-2.3672-2.8398-2.3672h-13.734c-1.4219 0-2.8398 0.94531-2.8398 2.3672l-3.7891 12.312c-0.47266 1.8945 0.94531 4.2617 2.8398 4.2617h21.785c1.8906-0.47266 3.3125-2.3672 2.3672-4.2578z"/>
  <path d="m483.98 388.32-3.7891-12.316c-0.47266-1.4219-1.4219-2.3672-2.8398-2.3672h-13.734c-1.4219 0-2.8398 0.94531-2.8398 2.3672l-3.7891 12.312c-0.47266 1.8945 0.94531 4.2617 2.8398 4.2617h21.785c1.4219-0.47266 2.8438-2.3672 2.3672-4.2578z"/>
  <path d="m532.28 400.15c-0.47266-1.4219-1.4219-2.3672-2.8398-2.3672h-13.734c-1.4219 0-2.8398 0.94531-2.8398 2.3672l-4.2617 12.316c-0.47266 1.8945 0.94531 4.2617 2.8398 4.2617h21.785c2.3672 0 3.7891-1.8945 2.8398-4.2617z"/>
  <path d="m497.24 400.15c-0.47266-1.4219-1.4219-2.3672-2.8398-2.3672h-13.734c-1.4219 0-2.8398 0.94531-2.8398 2.3672l-3.7891 12.312c-0.47266 1.8945 0.94531 4.2617 2.8398 4.2617h21.785c2.3672 0 3.7891-1.8945 2.8398-4.2617z"/>
  <path d="m462.67 400.15c-0.47266-1.4219-1.4219-2.3672-2.8398-2.3672h-13.734c-1.4219 0-2.8398 0.94531-2.8398 2.3672l-3.7891 12.312c-0.47266 1.8945 0.94531 4.2617 2.8398 4.2617h21.785c2.3672 0 3.7891-1.8945 2.8398-4.2617z"/>
  <path d="m487.29 339.06c2.3672 0 4.2617-1.8945 4.2617-4.2617v-10.895c0-2.3672-1.8945-4.2617-4.2617-4.2617-2.3672 0-4.2617 1.8945-4.2617 4.2617v10.891c0.47266 2.3711 2.3672 4.2656 4.2617 4.2656z"/>
  <path d="m470.72 343.8c0.94531 0.94531 1.8945 0.94531 2.8398 0.94531 0.94531 0 1.8945-0.47266 2.8398-0.94531 0.94531-0.94531 1.4219-1.8945 1.4219-2.8398 0-0.94531-0.47266-1.8945-0.94531-2.8398l-7.5781-7.5781c-1.4219-1.4219-4.2617-1.4219-5.6836 0-0.94531 0.94531-0.94531 1.8945-0.94531 2.8398 0 0.94531 0.47266 1.8945 1.4219 2.8398z"/>
  <path d="m501.03 344.75c0.94531 0 1.8945-0.47266 2.8398-0.94531l7.5781-7.5781c1.4219-1.4219 1.4219-4.2617 0-5.6836-1.4219-1.4219-4.2617-1.4219-5.6836 0l-7.5781 7.5742c-0.94531 0.94531-0.94531 1.8945-0.94531 2.8398s0.47266 1.8945 0.94531 2.8398c0.94922 0.48047 1.8945 0.95312 2.8438 0.95312z"/>
 </g>
</svg>
