<?xml version="1.0" encoding="utf-8"?>
<!-- Generator: Adobe Illustrator 26.3.1, SVG Export Plug-In . SVG Version: 6.00 Build 0)  -->
<svg version="1.1" id="ikona3" xmlns="http://www.w3.org/2000/svg" xmlns:xlink="http://www.w3.org/1999/xlink" x="0px" y="0px"
	 viewBox="0 0 199.6 199.6" style="enable-background:new 0 0 199.6 199.6;" xml:space="preserve">
<g>
	<path d="M145.9,58.8c-15.4,34.1-30.8,68.1-46.1,102c-15.3-33.9-30.7-67.9-46.1-102c5.6,3.3,11.7,3.5,17.6,3.1
		c5.5-0.4,10.9-1.6,16.4-2.5L85,62.6c-2.7,3.2-3.6,6.7-1.5,10.4c3.2,5.9,6.7,11.6,10.2,17.4c0.4,0.6,0.8,1.1,1.3,1.5l0,0
		c2.5,2.7,6.7,2.8,9.3,0.3c0,0,0,0,0,0c0.1-0.1,0.2-0.2,0.3-0.3l0,0c0.5-0.5,0.9-1,1.3-1.5c3.4-5.8,7-11.5,10.2-17.4
		c2-3.7,1.1-7.3-1.5-10.4l-2.7-3.2c5.5,0.9,10.9,2.2,16.4,2.5C134.3,62.3,140.4,62.1,145.9,58.8z"/>
</g>
<g>
	<path d="M99.8,180c-44.3,0-80.2-35.9-80.2-80.2s35.9-80.2,80.2-80.2S180,55.4,180,99.8c0,0,0,0,0,0.1
		C179.9,144.1,144.1,179.9,99.8,180z M99.8,22.6c-42.6,0-77.2,34.5-77.2,77.2S57.1,177,99.8,177c42.6,0,77.2-34.5,77.2-77.2
		c0,0,0,0,0,0C177,57.2,142.4,22.7,99.8,22.6L99.8,22.6z"/>
</g>
<g>
	<path d="M99.8,199.6C44.7,199.6,0,154.9,0,99.8C0,44.7,44.7,0,99.8,0c55.1,0,99.8,44.7,99.8,99.8
		C199.6,154.9,154.9,199.6,99.8,199.6z M99.8,3C46.3,3,3,46.3,3,99.8s43.3,96.8,96.8,96.8s96.8-43.3,96.8-96.8c0,0,0,0,0,0
		C196.6,46.4,153.3,3.1,99.8,3z"/>
</g>
<g>
	<path d="M44,28.7l3,2.6l-1.8-3.6c0-0.1-0.1-0.1-0.1-0.1c-0.1-0.1-0.1-0.1-0.2-0.1l-0.2,0.1c-0.2,0.1-0.4-0.1-0.7-0.4
		c-0.3-0.4-0.3-0.8,0-1c0.1-0.1,0.2-0.2,0.4-0.3c0.2-0.1,0.3-0.2,0.4-0.3c0.1-0.1,0.3-0.3,0.5-0.5c0.1-0.1,0.1-0.1,0.2-0.2
		c0.2-0.1,0.4-0.2,0.6-0.1c0.2,0.1,0.4,0.2,0.5,0.4c0.1,0.2,0.2,0.3,0.2,0.5c0,0.2,0,0.3-0.1,0.4l-0.2,0.1c-0.1,0.1-0.1,0.2,0,0.4
		l2.2,5.4c0.1,0.4,0.1,0.6,0,0.7c-0.1,0-0.1,0.1-0.3,0.2c-0.1,0.1-0.2,0.1-0.3,0.2c-0.1,0.1-0.3,0.2-0.4,0.3
		c-0.1,0.1-0.2,0.2-0.2,0.2c-0.2,0.2-0.5,0.1-0.8-0.1l-4.5-3.6c-0.2-0.1-0.3-0.2-0.3-0.1l-0.2,0.1c-0.1,0.1-0.2,0.1-0.4,0
		c-0.2-0.1-0.3-0.2-0.4-0.3c-0.2-0.2-0.2-0.4-0.2-0.6c0-0.2,0.1-0.4,0.3-0.5c0.1-0.1,0.2-0.2,0.4-0.3c0.2-0.1,0.3-0.2,0.4-0.3
		c0.2-0.1,0.3-0.3,0.4-0.4c0.2-0.2,0.3-0.3,0.3-0.3c0.3-0.3,0.7-0.2,1,0.2c0.2,0.3,0.3,0.6,0.2,0.8c-0.1,0.1-0.1,0.3,0,0.3
		C43.9,28.6,44,28.6,44,28.7z"/>
	<path d="M48.8,23c0.1,0.2,0.1,0.4-0.1,0.7l-0.7,0.9c-0.1,0.2-0.2,0.3-0.3,0.4c-0.1,0.1-0.2,0.1-0.4,0s-0.3-0.1-0.4-0.3
		c-0.1-0.1-0.1-0.3-0.1-0.4c0,0,0.1-0.2,0.2-0.4l0.6-1c0.1-0.1,0.1-0.2,0.2-0.2c0.1-0.1,0.3-0.1,0.5-0.1S48.6,22.8,48.8,23z
		 M49.4,24.9c0.2-0.1,0.4-0.1,0.5,0.2l2.1,3.1c0.2,0.3,0.3,0.4,0.4,0.3c0,0,0,0,0.1-0.1s0.1,0,0.1-0.1c0.2-0.1,0.4-0.1,0.6,0.3
		c0.3,0.4,0.3,0.7,0,1c-0.1,0.1-0.2,0.1-0.4,0.2s-0.3,0.2-0.4,0.2c-0.2,0.1-0.3,0.3-0.6,0.5c-0.1,0.1-0.2,0.1-0.3,0.2
		c-0.3,0.2-0.7,0.1-0.9-0.3c-0.2-0.3-0.2-0.6,0-0.7c0,0,0.1-0.1,0.1-0.1c0,0,0,0,0.1,0c0,0,0,0,0,0c0.1-0.1,0.1-0.2-0.1-0.5L49.4,27
		c-0.2-0.3-0.3-0.4-0.4-0.3c0,0,0,0-0.1,0.1c0,0-0.1,0.1-0.1,0.1c-0.2,0.2-0.5,0.1-0.7-0.3c-0.3-0.4-0.3-0.7,0-0.9
		c0.1,0,0.2-0.1,0.4-0.2c0.2-0.1,0.3-0.2,0.4-0.2L49.4,24.9z"/>
	<path d="M54,24.3c-0.1-0.1-0.1-0.3-0.1-0.5c-0.2-0.1-0.4-0.1-0.5,0c-0.2,0.1-0.3,0.4-0.3,0.7s0.2,0.8,0.4,1.2
		c0.3,0.4,0.6,0.8,0.9,1c0.3,0.2,0.5,0.2,0.8,0.1c0.2-0.1,0.3-0.4,0.1-0.9c-0.1-0.3-0.1-0.5-0.1-0.6c0-0.1,0.1-0.3,0.3-0.4
		c0.4-0.3,0.8-0.1,1,0.3c0.3,0.5,0.4,1,0.2,1.5c-0.1,0.5-0.4,0.9-0.9,1.2c-0.6,0.4-1.2,0.5-1.9,0.2c-0.6-0.2-1.2-0.7-1.7-1.5
		c-0.5-0.9-0.8-1.7-0.7-2.4c0.1-0.7,0.4-1.3,1-1.7c0.5-0.3,0.9-0.4,1.4-0.3c0.5,0.1,0.9,0.4,1.1,0.8c0.2,0.3,0.2,0.5,0.2,0.8
		s-0.2,0.4-0.4,0.6c-0.2,0.1-0.4,0.1-0.5,0.1C54.3,24.5,54.1,24.4,54,24.3z"/>
	<path d="M60.2,22.3l-2.1,1.2l0.1,0.2c0.4,0.7,0.8,1,1.3,0.8c0.3-0.2,0.4-0.5,0.3-0.9c-0.1-0.2-0.1-0.4,0-0.5c0-0.1,0.2-0.2,0.3-0.3
		c0.4-0.2,0.8-0.1,1,0.3c0.2,0.4,0.3,0.9,0.1,1.3c-0.2,0.5-0.5,0.8-1,1.1c-0.7,0.4-1.3,0.4-2,0.2S57,24.9,56.6,24
		c-0.5-0.9-0.7-1.7-0.6-2.4c0.1-0.7,0.5-1.2,1.1-1.6c0.6-0.3,1.2-0.4,1.7-0.1c0.6,0.2,1.1,0.7,1.4,1.4c0.2,0.3,0.2,0.5,0.2,0.6
		C60.5,22.1,60.4,22.2,60.2,22.3z M57.6,22.4l1.2-0.6l-0.1-0.1c-0.1-0.2-0.3-0.4-0.4-0.4c-0.2-0.1-0.3-0.1-0.5,0
		C57.3,21.4,57.3,21.8,57.6,22.4z"/>
	<path d="M64.4,17l0.1,0.2c0.2-0.6,0.5-1,1-1.2c0.4-0.2,0.8-0.2,1.2,0c0.4,0.2,0.7,0.6,0.9,1.1l0.9,2.3c0.1,0.3,0.2,0.4,0.4,0.4
		c0,0,0,0,0.1,0c0,0,0,0,0,0c0,0,0.1,0,0.1,0c0.2-0.1,0.4,0,0.6,0.4c0.1,0.2,0.1,0.4,0.1,0.6S69.7,21,69.6,21
		c-0.1,0-0.2,0.1-0.4,0.1c-0.1,0-0.3,0.1-0.4,0.1c-0.1,0-0.2,0.1-0.4,0.2c-0.2,0.1-0.3,0.1-0.4,0.2c-0.3,0.1-0.6,0-0.7-0.4
		c-0.1-0.3-0.1-0.5,0-0.6c0.1-0.1,0.1-0.3,0-0.6l-0.7-1.7c-0.2-0.6-0.5-0.8-0.9-0.7c-0.4,0.2-0.4,0.6-0.1,1.2l0.7,1.6
		c0.1,0.3,0.2,0.4,0.4,0.4s0.3,0.1,0.4,0.4c0.2,0.5,0.1,0.8-0.2,0.9c-0.1,0-0.2,0.1-0.4,0.1c-0.2,0.1-0.3,0.1-0.4,0.1
		c-0.1,0-0.2,0.1-0.4,0.2c-0.2,0.1-0.3,0.1-0.4,0.2c-0.4,0.2-0.6,0-0.8-0.5c-0.1-0.4-0.1-0.6,0.1-0.7c0,0,0.1,0,0.1,0c0,0,0,0,0.1,0
		c0,0,0,0,0,0c0.1,0,0.1-0.2,0-0.5l-0.9-2.2c-0.1-0.3-0.2-0.4-0.3-0.4c0,0-0.1,0-0.1,0.1s-0.1,0.1-0.1,0.1c-0.3,0.1-0.5,0-0.6-0.4
		c-0.2-0.4-0.1-0.7,0.2-0.9c0.1,0,0.2-0.1,0.3-0.1c0.2-0.1,0.4-0.1,0.5-0.2c0,0,0.1,0,0.2-0.1c0.1,0,0.1-0.1,0.2-0.1
		C64.3,16.8,64.4,16.8,64.4,17z"/>
	<path d="M73.1,17l-2.3,0.8l0.1,0.2c0.3,0.8,0.7,1.1,1.2,0.9c0.3-0.1,0.5-0.4,0.5-0.8c0-0.2,0-0.4,0.1-0.5s0.2-0.2,0.4-0.2
		c0.5-0.2,0.8,0,1,0.5c0.2,0.5,0.1,0.9-0.1,1.3c-0.3,0.4-0.7,0.7-1.2,0.9c-0.7,0.3-1.4,0.2-2-0.2s-1-1-1.3-1.9
		c-0.3-1-0.4-1.8-0.2-2.5c0.2-0.7,0.7-1.1,1.3-1.4c0.6-0.2,1.2-0.2,1.7,0.2c0.5,0.3,0.9,0.9,1.2,1.6c0.1,0.3,0.1,0.5,0.1,0.6
		C73.4,16.8,73.3,16.9,73.1,17z M70.4,16.6l1.2-0.4l0-0.1c-0.1-0.2-0.2-0.4-0.4-0.5c-0.2-0.1-0.3-0.1-0.5-0.1
		C70.4,15.7,70.3,16,70.4,16.6z"/>
	<path d="M73.6,10.8l1.1,0.1l0.9-0.6c0.1-0.1,0.2-0.1,0.4-0.2c0.1,0,0.3,0,0.4,0c0.1,0.1,0.2,0.2,0.2,0.3c0.1,0.2,0,0.5-0.3,0.7
		l-0.7,0.7c-0.2,0.2-0.4,0.3-0.5,0.4c-0.1,0-0.3,0-0.5,0l-1-0.2c-0.4-0.1-0.6-0.2-0.6-0.5c0-0.1,0-0.3,0-0.4
		c0.1-0.1,0.2-0.2,0.3-0.3C73.3,10.8,73.4,10.8,73.6,10.8z M74.8,17l1.1-3.1l-1,0.3c-0.3,0.1-0.4,0.2-0.3,0.3c0,0.1,0,0.1,0,0.1
		l0,0.2c0.1,0.5,0,0.8-0.4,0.9c-0.4,0.1-0.6-0.1-0.7-0.5l0-0.1c-0.1-0.3-0.1-0.5-0.1-0.5L73.3,14c-0.1-0.4,0-0.6,0.4-0.7l0.7-0.1
		c0.1,0,0.3-0.1,0.5-0.1c0.5-0.2,0.9-0.3,1.1-0.3c0.5-0.2,0.8-0.3,0.8-0.3c0.4-0.1,0.7,0.1,0.9,0.7c0.1,0.3,0.1,0.6-0.1,1l-1.3,3.5
		l0.7-0.2c0.2-0.1,0.3-0.1,0.4-0.1c0.1-0.1,0.1-0.2,0.1-0.3l-0.1-0.4c-0.1-0.4,0-0.6,0.4-0.7c0.4-0.1,0.6,0,0.7,0.5
		c0,0.1,0,0.2,0.1,0.4s0.1,0.3,0.1,0.4l0.2,0.6c0.1,0.3,0,0.6-0.4,0.7l-1.2,0.3c-0.2,0.1-0.5,0.2-0.9,0.3c-0.4,0.1-0.7,0.2-0.9,0.3
		c-0.4,0.1-0.6-0.1-0.8-0.5c-0.1-0.2-0.1-0.4,0-0.6C74.6,17.9,74.7,17.5,74.8,17z"/>
	<path d="M83,10.9c0.4-0.1,0.8,0,1.2,0.3L84,10.5c0-0.3-0.1-0.4-0.2-0.4c0,0,0,0-0.1,0.1c0,0,0,0-0.1,0c0,0,0,0-0.1,0
		c-0.3,0.1-0.5-0.1-0.5-0.5c-0.1-0.5,0.1-0.7,0.5-0.8c0.1,0,0.2,0,0.5,0c0.2,0,0.3,0,0.4-0.1l0.5-0.2c0.2,0,0.4,0.1,0.4,0.4l1,5.7
		c0.1,0.3,0.1,0.5,0.3,0.5c0,0,0,0,0.1,0c0,0,0,0,0.1,0c0,0,0.1,0,0.1,0c0.3,0,0.4,0.1,0.5,0.5c0.1,0.5-0.1,0.8-0.4,0.8
		c-0.1,0-0.2,0-0.4,0c-0.2,0-0.3,0-0.4,0.1l-0.5,0.1l0,0c-0.2,0-0.4-0.1-0.4-0.3c0,0,0,0,0,0c0,0,0-0.1,0-0.1
		c-0.3,0.5-0.7,0.8-1.2,0.9c-0.6,0.1-1-0.1-1.5-0.6c-0.4-0.5-0.7-1.2-0.9-2.1c-0.2-1-0.1-1.7,0.1-2.4C82,11.4,82.4,11,83,10.9z
		 M83.7,12.3c-0.2,0-0.4,0.2-0.5,0.5c-0.1,0.3-0.1,0.7,0,1.2c0.1,0.5,0.2,0.9,0.4,1.2c0.2,0.3,0.4,0.4,0.6,0.3
		c0.5-0.1,0.6-0.6,0.4-1.7c-0.1-0.5-0.2-0.9-0.4-1.2C84.1,12.4,83.9,12.3,83.7,12.3z"/>
	<path d="M90.9,15.7l0-0.3c-0.4,0.5-0.8,0.8-1.3,0.8c-1,0.1-1.6-0.5-1.7-1.8l-0.3-2.3c0-0.3-0.1-0.5-0.2-0.5c0,0-0.1,0-0.1,0
		s-0.1,0-0.1,0c-0.3,0-0.4-0.1-0.4-0.5c-0.1-0.5,0.1-0.8,0.5-0.8c0.1,0,0.2,0,0.4,0c0.2,0,0.3,0,0.4,0l0.5-0.1c0,0,0,0,0.1,0
		c0.2,0,0.4,0.1,0.4,0.3l0.4,3.3c0.1,0.6,0.3,0.9,0.6,0.8c0.4,0,0.6-0.4,0.5-1.1l-0.2-1.6c0-0.3-0.1-0.5-0.2-0.5c0,0-0.1,0-0.1,0
		c0,0-0.1,0-0.1,0c-0.3,0-0.4-0.1-0.5-0.5c0-0.2,0-0.4,0.1-0.6c0.1-0.2,0.2-0.2,0.4-0.3c0.1,0,0.2,0,0.4,0c0.2,0,0.3,0,0.4,0
		l0.6-0.1c0,0,0.1,0,0.1,0c0.2,0,0.4,0.1,0.4,0.3l0.4,3.8c0,0.3,0.1,0.5,0.2,0.5c0,0,0,0,0.1,0c0,0,0,0,0,0c0,0,0.1,0,0.1,0
		c0.3,0,0.4,0.1,0.4,0.5c0,0.2,0,0.4-0.1,0.6c-0.1,0.1-0.2,0.2-0.4,0.3c-0.1,0-0.2,0-0.4,0c-0.2,0-0.3,0-0.4,0c-0.1,0-0.2,0-0.4,0.1
		c0,0-0.1,0-0.1,0C91,15.9,90.9,15.9,90.9,15.7z M89.4,9.4c-0.3,0-0.6,0-0.8-0.3c-0.2-0.2-0.4-0.5-0.4-0.9c0-0.4,0-0.7,0.2-1
		s0.4-0.4,0.8-0.5c0.3,0,0.6,0,0.8,0.2c0.2,0.2,0.4,0.5,0.4,0.9c0,0.4,0,0.7-0.2,1C90,9.2,89.7,9.4,89.4,9.4z M89.2,7.7
		c-0.2,0-0.3,0.2-0.2,0.5l0,0c0,0.3,0.1,0.4,0.3,0.4c0.2,0,0.3-0.2,0.2-0.4C89.5,7.9,89.4,7.7,89.2,7.7z"/>
	<path d="M94.1,7.6c0.2,0,0.3,0.1,0.4,0.4l0.4,5.8c0,0.3,0.1,0.5,0.2,0.5c0,0,0,0,0,0c0,0,0,0,0.1,0c0,0,0.1,0,0.1,0
		c0.3,0,0.4,0.2,0.4,0.5c0,0.5-0.1,0.8-0.5,0.8c-0.1,0-0.3,0-0.5,0c-0.2,0-0.4,0-0.6,0c-0.1,0-0.2,0-0.4,0.1s-0.3,0.1-0.4,0.1
		c-0.4,0-0.6-0.2-0.6-0.7c0-0.4,0.1-0.6,0.3-0.6c0.1,0,0.1,0,0.1,0c0,0,0,0,0.1,0c0,0,0,0,0,0c0.1,0,0.2-0.2,0.2-0.5L93,9.5
		C93,9.2,92.9,9,92.8,9c0,0-0.1,0-0.1,0c-0.1,0-0.1,0-0.1,0c-0.3,0-0.4-0.2-0.5-0.6c0-0.5,0.1-0.7,0.5-0.8c0.1,0,0.2,0,0.5,0
		c0.2,0,0.4,0,0.5,0L94.1,7.6L94.1,7.6z"/>
	<path d="M97.7,9.8l0,0.3c0.4-0.5,0.9-0.7,1.4-0.8c0.5,0,0.9,0.2,1.1,0.5c0.3,0.3,0.4,0.8,0.4,1.4l0,2.4c0,0.3,0.1,0.5,0.2,0.5
		c0,0,0,0,0.1,0c0,0,0,0,0,0c0,0,0.1,0,0.1,0c0.3,0,0.4,0.2,0.4,0.6c0,0.2,0,0.4-0.2,0.5c-0.1,0.1-0.2,0.2-0.4,0.2
		c-0.1,0-0.2,0-0.4,0c-0.1,0-0.3,0-0.4,0c-0.1,0-0.2,0-0.4,0c-0.2,0-0.3,0-0.4,0c-0.3,0-0.5-0.2-0.5-0.7c0-0.3,0.1-0.5,0.2-0.6
		s0.2-0.3,0.2-0.5l0-1.9c0-0.6-0.2-0.9-0.6-0.9c-0.4,0-0.6,0.4-0.6,1.1l0,1.7c0,0.3,0.1,0.5,0.2,0.5c0.1,0.1,0.2,0.2,0.2,0.5
		c0,0.5-0.2,0.8-0.5,0.8c-0.1,0-0.2,0-0.4,0c-0.2,0-0.3,0-0.4,0c-0.1,0-0.2,0-0.4,0c-0.2,0-0.3,0-0.4,0c-0.4,0-0.6-0.2-0.6-0.7
		c0-0.4,0.1-0.6,0.4-0.6c0,0,0.1,0,0.1,0c0,0,0,0,0.1,0c0,0,0,0,0,0c0.1,0,0.2-0.2,0.2-0.5l0-2.3c0-0.3-0.1-0.5-0.2-0.5
		c0,0-0.1,0-0.1,0c-0.1,0-0.1,0-0.1,0c-0.3,0-0.4-0.2-0.4-0.6c0-0.5,0.2-0.7,0.5-0.7c0.1,0,0.2,0,0.3,0c0.2,0,0.4,0,0.5,0
		c0,0,0.1,0,0.2,0c0.1,0,0.2,0,0.2,0C97.7,9.5,97.7,9.6,97.7,9.8z"/>
	<path d="M103.8,9.6c0.2,0,0.3,0.2,0.3,0.4l-0.1,3.7c0,0.3,0,0.5,0.2,0.5c0,0,0.1,0,0.1,0s0.1,0,0.1,0c0.3,0,0.4,0.2,0.4,0.6
		c0,0.5-0.2,0.8-0.6,0.7c-0.1,0-0.2,0-0.4-0.1c-0.2,0-0.3,0-0.4-0.1c-0.2,0-0.4,0-0.8,0c-0.1,0-0.2,0-0.3,0c-0.4,0-0.6-0.3-0.6-0.8
		c0-0.4,0.2-0.6,0.4-0.6c0,0,0.1,0,0.1,0c0,0,0,0,0.1,0c0,0,0,0,0,0c0.1,0,0.2-0.2,0.2-0.5l0.1-2.3c0-0.3,0-0.5-0.1-0.5
		c0,0-0.1,0-0.1,0c-0.1,0-0.1,0-0.1,0c-0.3,0-0.4-0.2-0.4-0.7c0-0.5,0.2-0.7,0.6-0.7c0.1,0,0.2,0,0.4,0.1c0.2,0,0.3,0,0.4,0
		L103.8,9.6z M104.4,7.7c0,0.2-0.2,0.4-0.5,0.5l-1.1,0.3c-0.2,0.1-0.4,0.1-0.5,0.1c-0.1,0-0.2-0.1-0.3-0.2c-0.1-0.1-0.1-0.3-0.1-0.4
		c0-0.2,0.1-0.3,0.2-0.4c0,0,0.2-0.1,0.4-0.2l1.1-0.5c0.1-0.1,0.2-0.1,0.3-0.1c0.2,0,0.3,0.1,0.4,0.3C104.3,7.3,104.4,7.5,104.4,7.7
		z"/>
	<path d="M110,11.8l0.3,2.5l0.9-2.4c0-0.1,0-0.1,0-0.2c0-0.1,0-0.1-0.1-0.2c-0.2-0.1-0.3-0.3-0.2-0.6c0.1-0.5,0.3-0.7,0.6-0.7
		c0.1,0,0.2,0,0.3,0.1c0.1,0,0.2,0.1,0.4,0.1c0.1,0,0.2,0,0.4,0c0.2,0,0.3,0,0.4,0c0.2,0,0.3,0.1,0.4,0.2c0.1,0.1,0.1,0.3,0.1,0.5
		c-0.1,0.4-0.2,0.6-0.5,0.6c-0.1,0-0.2,0.1-0.3,0.3l-1.6,3.8c-0.1,0.2-0.3,0.4-0.5,0.3c-0.1,0-0.1,0-0.1,0c-0.3,0-0.4-0.1-0.4-0.1
		c-0.1,0-0.2,0-0.4,0c0,0-0.1,0-0.1,0c-0.2,0-0.3-0.2-0.3-0.4l-0.6-4c0-0.1,0-0.2,0-0.2c0-0.1-0.1-0.1-0.1-0.1l-0.2-0.1
		c-0.2-0.1-0.2-0.3-0.2-0.6c0.1-0.5,0.3-0.7,0.7-0.7c0.1,0,0.2,0,0.3,0.1c0.2,0,0.4,0.1,0.4,0.1c0.1,0,0.2,0,0.5,0
		c0.1,0,0.1,0,0.2,0c0.3,0,0.5,0.3,0.4,0.8c0,0.3-0.2,0.5-0.4,0.5c-0.1,0-0.1,0.1-0.2,0.2C110,11.6,110,11.7,110,11.8z"/>
	<path d="M115,17c-0.7-0.1-1.3-0.5-1.6-1.1c-0.3-0.6-0.4-1.4-0.2-2.4c0.2-1,0.5-1.7,1-2.2c0.5-0.5,1.1-0.6,1.9-0.5
		c0.7,0.1,1.2,0.5,1.5,1.1c0.3,0.6,0.4,1.4,0.2,2.3c-0.2,1-0.5,1.8-1,2.3S115.7,17.1,115,17z M115.9,12.2c-0.5-0.1-0.9,0.4-1.1,1.4
		c0,0,0,0.1,0,0.1c-0.1,0.5-0.1,0.9,0,1.2s0.2,0.5,0.5,0.5c0.5,0.1,0.9-0.4,1.1-1.5c0.1-0.5,0.1-0.9,0-1.3
		C116.3,12.5,116.1,12.3,115.9,12.2z"/>
	<path d="M118.8,15.5l2.5-2.2l-1-0.2c-0.3-0.1-0.4,0-0.4,0.1c0,0.1,0,0.1,0,0.1l0,0.2c-0.1,0.5-0.4,0.7-0.8,0.6
		c-0.4-0.1-0.5-0.4-0.4-0.8l0-0.1c0.1-0.3,0.1-0.5,0.1-0.5l0.1-0.6c0.1-0.4,0.3-0.5,0.7-0.4l0.7,0.2c0.1,0,0.3,0.1,0.5,0.1
		c0.6,0.1,0.9,0.2,1.1,0.2c0.5,0.1,0.8,0.1,0.8,0.1c0.4,0.1,0.5,0.4,0.4,1c-0.1,0.3-0.3,0.6-0.6,0.8l-2.8,2.4l0.7,0.2
		c0.2,0,0.3,0.1,0.4,0.1c0.1,0,0.2-0.1,0.2-0.3l0.1-0.4c0.1-0.4,0.3-0.5,0.7-0.4c0.4,0.1,0.5,0.3,0.4,0.8c0,0.1-0.1,0.2-0.1,0.3
		c-0.1,0.2-0.1,0.3-0.1,0.4l-0.1,0.6c-0.1,0.3-0.3,0.5-0.7,0.4l-1.2-0.3c-0.2-0.1-0.5-0.1-1-0.2c-0.4-0.1-0.8-0.1-1-0.2
		c-0.4-0.1-0.5-0.4-0.4-0.8c0.1-0.2,0.1-0.4,0.2-0.5S118.4,15.8,118.8,15.5z"/>
	<path d="M125.9,13.3c0.2,0.1,0.3,0.2,0.2,0.5l-1.1,3.6c-0.1,0.3-0.1,0.5,0,0.5c0,0,0.1,0,0.1,0c0,0,0.1,0,0.1,0
		c0.2,0.1,0.3,0.3,0.2,0.7c-0.1,0.5-0.4,0.7-0.8,0.6c-0.1,0-0.2-0.1-0.4-0.2c-0.2-0.1-0.3-0.1-0.4-0.2c-0.2-0.1-0.4-0.1-0.7-0.2
		c-0.1,0-0.2,0-0.3-0.1c-0.4-0.1-0.5-0.4-0.4-0.9c0.1-0.4,0.3-0.5,0.5-0.4c0,0,0.1,0,0.1,0c0,0,0,0,0.1,0c0,0,0,0,0,0
		c0.1,0,0.2-0.1,0.3-0.4l0.7-2.2c0.1-0.3,0.1-0.5,0-0.5c0,0-0.1,0-0.1,0c-0.1,0-0.1,0-0.1,0c-0.3-0.1-0.3-0.3-0.2-0.7
		c0.1-0.5,0.4-0.6,0.7-0.5c0.1,0,0.2,0.1,0.4,0.2c0.2,0.1,0.3,0.1,0.4,0.1L125.9,13.3z M126.9,11.7c-0.1,0.2-0.3,0.3-0.6,0.3l-1.1,0
		c-0.2,0-0.4,0-0.5,0c-0.1,0-0.2-0.1-0.3-0.3c-0.1-0.2-0.1-0.3,0-0.4c0-0.1,0.1-0.2,0.3-0.3c0,0,0.2,0,0.4-0.1l1.2-0.2
		c0.1,0,0.2,0,0.3,0c0.2,0,0.3,0.2,0.4,0.3S127,11.4,126.9,11.7z"/>
	<path d="M130,12.9l-1.3,3.8l0.8-0.5c0.1-0.1,0.2-0.2,0.2-0.2c0,0,0-0.1,0-0.1l-0.1-0.2c-0.1-0.1-0.1-0.3,0-0.5
		c0.1-0.4,0.4-0.5,0.7-0.4c0.1,0,0.3,0.1,0.5,0.2s0.4,0.2,0.5,0.2c0.1,0,0.2,0.1,0.5,0.1c0.2,0.1,0.4,0.1,0.5,0.1
		c0.4,0.1,0.5,0.4,0.3,0.8c-0.1,0.4-0.4,0.5-0.6,0.5l-0.1,0l-0.2-0.1l-0.2,0l-0.3,0.1l-0.8,0.4l0.2,2.3c0,0.2,0.1,0.3,0.1,0.4
		l0.2,0.1c0.3,0.1,0.3,0.4,0.2,0.8c-0.2,0.4-0.4,0.6-0.8,0.5c-0.1,0-0.2-0.1-0.4-0.2s-0.3-0.1-0.4-0.2c-0.1-0.1-0.3-0.1-0.5-0.1
		c-0.2-0.1-0.4-0.1-0.4-0.1c-0.4-0.1-0.5-0.4-0.3-0.9c0.1-0.2,0.2-0.4,0.3-0.4l0.2-0.1c0,0,0,0,0.1-0.1l0,0c0,0,0-0.1,0-0.2
		l-0.2-1.1l-0.6,0.3l-0.2,0.5c0,0.1,0,0.2,0,0.3c0.1,0.1,0.2,0.2,0.2,0.3c0,0.1,0,0.2-0.1,0.3c-0.2,0.5-0.4,0.7-0.7,0.6
		c0,0-0.2-0.1-0.3-0.1c-0.1-0.1-0.3-0.1-0.4-0.2c-0.1,0-0.3-0.1-0.5-0.1c-0.1,0-0.3-0.1-0.4-0.1c-0.4-0.1-0.5-0.4-0.3-0.9
		c0.1-0.4,0.3-0.5,0.5-0.4c0.1,0,0.1,0,0.1,0c0,0,0,0,0.1,0s0,0,0,0c0.1,0,0.2-0.1,0.3-0.4l1.5-4.2c0.1-0.3,0.1-0.5,0-0.5
		c0,0-0.1,0-0.1,0c0,0,0,0-0.1,0s0,0-0.1,0c-0.3-0.1-0.3-0.3-0.2-0.8c0.2-0.5,0.4-0.6,0.8-0.5c0.1,0,0.2,0.1,0.4,0.2
		c0.2,0.1,0.3,0.1,0.4,0.2l0.6,0.1C130,12.5,130.1,12.6,130,12.9z"/>
	<path d="M134.4,18.2l-0.4,2.3l1.4-1.9c0.1-0.1,0.1-0.1,0.1-0.2c0-0.1,0-0.1-0.1-0.2c-0.1-0.1-0.1-0.3,0-0.6
		c0.2-0.5,0.5-0.6,0.9-0.5c0.1,0,0.2,0.1,0.3,0.2c0.1,0.1,0.2,0.1,0.3,0.2c0.1,0,0.2,0.1,0.4,0.1c0.1,0,0.2,0.1,0.2,0.1
		c0.4,0.2,0.5,0.5,0.3,0.9c-0.2,0.4-0.4,0.6-0.6,0.4l-0.1-0.1c-0.1,0-0.1,0-0.2,0.1l-0.1,0.1l-2.4,2.8c-0.5,0.6-1.1,1.1-1.6,1.6
		c-0.3,0.2-0.7,0.4-1.1,0.5s-0.8,0-1.1-0.1c-0.4-0.2-0.6-0.4-0.8-0.7c-0.1-0.3-0.1-0.7,0-1c0.1-0.3,0.3-0.4,0.5-0.6
		c0.2-0.1,0.5-0.1,0.7,0c0.2,0.1,0.3,0.2,0.4,0.4c0.1,0.2,0,0.4-0.1,0.6l-0.1,0.2c0.3,0,0.6-0.2,0.9-0.6c0.1-0.1,0.2-0.2,0.2-0.3
		c0,0,0-0.1,0.1-0.2l0.5-4.3c0-0.2,0-0.3-0.1-0.3l-0.2-0.1c-0.3-0.1-0.3-0.4-0.2-0.8c0.2-0.4,0.4-0.6,0.8-0.4c0.1,0,0.2,0.1,0.4,0.2
		c0.2,0.1,0.3,0.2,0.4,0.2c0.2,0.1,0.4,0.2,0.5,0.2c0.2,0,0.3,0.1,0.3,0.1c0.4,0.2,0.4,0.5,0.2,0.9c-0.1,0.3-0.3,0.4-0.5,0.4
		c-0.1,0-0.2,0-0.2,0.1l0,0L134.4,18.2z"/>
	<path d="M136.3,23.9c-0.3-0.1-0.4-0.3-0.5-0.6c-0.1-0.3,0-0.6,0.1-0.9c0.1-0.3,0.4-0.5,0.6-0.7c0.3-0.1,0.5-0.1,0.8,0
		s0.4,0.3,0.5,0.6s0,0.6-0.1,0.9c-0.2,0.3-0.4,0.5-0.6,0.7C136.9,24.1,136.6,24.1,136.3,23.9z"/>
	<path d="M139,25.3c-0.3-0.1-0.4-0.3-0.5-0.6c-0.1-0.3,0-0.6,0.2-0.9c0.2-0.3,0.4-0.5,0.7-0.6s0.6-0.1,0.8,0
		c0.3,0.1,0.4,0.3,0.5,0.6c0.1,0.3,0,0.6-0.2,0.9c-0.2,0.3-0.4,0.5-0.7,0.6C139.6,25.5,139.3,25.4,139,25.3z"/>
	<path d="M141.7,26.8c-0.2-0.1-0.4-0.4-0.4-0.7s0-0.6,0.2-0.9c0.2-0.3,0.4-0.5,0.7-0.6c0.3-0.1,0.6-0.1,0.8,0.1s0.4,0.4,0.4,0.7
		s0,0.6-0.2,0.9c-0.2,0.3-0.4,0.5-0.7,0.6C142.2,26.9,141.9,26.9,141.7,26.8z"/>
	<path d="M146.6,29.8c-0.2-0.2-0.4-0.4-0.4-0.7c0-0.3,0.1-0.6,0.3-0.9c0.2-0.3,0.4-0.5,0.7-0.6s0.6,0,0.8,0.1
		c0.2,0.2,0.4,0.4,0.4,0.7c0,0.3-0.1,0.6-0.3,0.9c-0.2,0.3-0.4,0.5-0.7,0.6C147.2,30.1,146.9,30,146.6,29.8z M148.5,27.1
		c-0.2-0.2-0.4-0.4-0.4-0.7c0-0.3,0.1-0.6,0.3-0.9c0.2-0.3,0.4-0.5,0.7-0.6c0.3-0.1,0.6,0,0.8,0.1s0.4,0.4,0.4,0.7s-0.1,0.6-0.3,0.9
		c-0.2,0.3-0.4,0.5-0.7,0.6C149,27.3,148.7,27.3,148.5,27.1z"/>
	<path d="M149.8,28L149.8,28c0.4-0.5,0.7-0.6,1-0.4c0,0,0,0,0.1,0.1c0.1,0.1,0.1,0.1,0.2,0.1c0.2,0.1,0.3,0.2,0.4,0.3
		c0,0,0.1,0.1,0.2,0.1c0.1,0.1,0.1,0.1,0.1,0.1c0.2,0.1,0.3,0.2,0.3,0.2l0,0c0.3,0.2,0.4,0.6,0.1,1c-0.3,0.5-0.7,0.6-1,0.4
		c-0.1,0-0.2-0.1-0.3-0.3c0,0-0.2-0.1-0.3-0.2c-0.1-0.1-0.3-0.2-0.5-0.3c-0.1,0-0.1-0.1-0.2-0.1s-0.1-0.1-0.1-0.1
		C149.5,28.7,149.5,28.4,149.8,28z"/>
	<path d="M149.4,33.4c0.2-0.3,0.5-0.4,0.7-0.3l0.5,0.2c0.5,0.2,1.1,0.1,1.7-0.2c0.7-0.4,1.3-0.9,1.9-1.7c0.5-0.7,0.9-1.3,1.1-1.9
		c0.2-0.6,0.2-1.2,0.1-1.6c0-0.1-0.1-0.2-0.2-0.3c0,0-0.1-0.1-0.2-0.2c-0.2-0.2-0.3-0.4-0.3-0.6c0-0.1,0.1-0.3,0.2-0.5
		c0.3-0.4,0.7-0.4,1-0.1c0.7,0.6,1.1,1.5,1,2.8s-0.5,2.5-1.4,3.5c-0.9,1.1-1.9,1.8-3.1,2.2s-2.2,0.3-2.9-0.3
		C149.2,34.2,149.1,33.8,149.4,33.4z"/>
</g>
<g>
	<path d="M18.3,139.4l3.9-2c0.1-0.1,0.2-0.1,0.1-0.2c0,0,0-0.1-0.1-0.1s0-0.1-0.1-0.1c-0.1-0.1-0.1-0.3,0-0.4
		c0.1-0.1,0.2-0.3,0.4-0.4c0.2-0.1,0.5-0.2,0.7-0.1c0.2,0,0.4,0.2,0.5,0.4c0.1,0.1,0.2,0.4,0.3,0.6c0.1,0.2,0.2,0.4,0.3,0.6
		c0.2,0.3,0.3,0.6,0.4,0.8c0.2,0.3,0.3,0.5,0.4,0.6c0.4,0.7,0.3,1.4-0.1,2.1c-0.4,0.8-1.2,1.4-2.2,1.9c-1.1,0.6-2.1,0.8-3,0.7
		c-0.9-0.1-1.5-0.5-1.9-1.3c-0.1-0.1-0.2-0.4-0.3-0.6s-0.2-0.5-0.3-0.6c-0.1-0.2-0.2-0.4-0.3-0.6c-0.1-0.2-0.2-0.4-0.3-0.5
		c-0.1-0.2-0.1-0.4,0-0.6c0.1-0.2,0.2-0.4,0.5-0.5c0.2-0.1,0.4-0.1,0.5-0.1c0.2,0,0.3,0.1,0.3,0.2c0,0,0,0,0,0.1s0,0.1,0,0.1
		s0,0,0,0.1C18.1,139.5,18.2,139.5,18.3,139.4z M23.5,139.2c-0.1-0.2-0.2-0.3-0.4-0.2c-0.1,0-0.3,0.1-0.5,0.2l-3.3,1.7
		c-0.3,0.2-0.5,0.4-0.3,0.6c0.2,0.3,0.5,0.5,1,0.5c0.5,0,1.1-0.2,1.8-0.6c0.7-0.4,1.2-0.7,1.5-1.2C23.6,140,23.7,139.6,23.5,139.2z"
		/>
	<path d="M21.6,148.6l0.3-0.2c-0.6-0.1-1-0.4-1.3-0.9c-0.5-0.8-0.2-1.6,0.9-2.3l2-1.2c0.3-0.2,0.4-0.3,0.3-0.4c0,0,0-0.1-0.1-0.1
		c0,0,0-0.1-0.1-0.1c-0.1-0.2,0-0.4,0.3-0.6c0.4-0.3,0.8-0.2,1,0.1c0,0.1,0.1,0.2,0.2,0.4c0.1,0.2,0.1,0.3,0.2,0.4l0.3,0.4
		c0,0,0,0,0.1,0.1c0.1,0.2,0.1,0.4-0.1,0.5l-2.9,1.8c-0.5,0.3-0.7,0.6-0.5,0.9c0.2,0.3,0.6,0.3,1.2,0l1.4-0.9
		c0.3-0.2,0.4-0.3,0.3-0.4c0,0,0-0.1-0.1-0.1c0,0,0-0.1-0.1-0.1c-0.1-0.2,0-0.4,0.3-0.6c0.2-0.1,0.4-0.2,0.6-0.2
		c0.2,0,0.3,0.1,0.4,0.3c0,0.1,0.1,0.2,0.2,0.3s0.1,0.3,0.2,0.3l0.4,0.5c0,0,0,0,0.1,0.1c0.1,0.2,0.1,0.4-0.1,0.5l-3.3,2
		c-0.3,0.2-0.4,0.3-0.3,0.4c0,0,0,0,0,0.1c0,0,0,0,0,0c0,0,0,0.1,0.1,0.1c0.1,0.2,0,0.4-0.3,0.6c-0.2,0.1-0.4,0.2-0.5,0.1
		c-0.2,0-0.3-0.1-0.4-0.3c0-0.1-0.1-0.2-0.2-0.3c-0.1-0.2-0.1-0.3-0.2-0.3c0-0.1-0.1-0.2-0.3-0.3c0,0,0,0-0.1-0.1
		C21.4,148.8,21.4,148.7,21.6,148.6z M26.6,144.6c-0.2-0.3-0.2-0.6-0.1-0.9c0.1-0.3,0.3-0.5,0.6-0.7c0.3-0.2,0.7-0.3,1-0.2
		c0.3,0.1,0.6,0.2,0.7,0.5c0.2,0.3,0.2,0.6,0.1,0.8c-0.1,0.3-0.3,0.5-0.6,0.7c-0.3,0.2-0.7,0.3-1,0.2C27,145,26.8,144.9,26.6,144.6z
		 M28.1,143.7c-0.1-0.2-0.3-0.2-0.5,0l0,0c-0.2,0.1-0.3,0.3-0.2,0.5c0.1,0.2,0.3,0.2,0.5,0C28.1,144,28.2,143.9,28.1,143.7z"/>
	<path d="M30.3,147.6c0.1,0.2,0.1,0.4-0.2,0.5l-4.8,3.3c-0.3,0.2-0.4,0.3-0.3,0.4c0,0,0,0,0,0c0,0,0,0,0,0c0,0,0,0,0.1,0.1
		c0.1,0.2,0.1,0.4-0.2,0.6c-0.4,0.3-0.7,0.3-1-0.1c0-0.1-0.1-0.2-0.3-0.4c-0.1-0.1-0.2-0.3-0.3-0.5c-0.1-0.1-0.1-0.2-0.3-0.4
		c-0.1-0.2-0.2-0.3-0.3-0.3c-0.2-0.3-0.1-0.6,0.3-0.9c0.3-0.2,0.5-0.2,0.7,0c0,0,0.1,0.1,0.1,0.1c0,0,0,0,0,0c0,0,0,0,0,0
		c0.1,0.1,0.2,0.1,0.5-0.1l3.6-2.5c0.3-0.2,0.4-0.3,0.3-0.4c0,0,0-0.1-0.1-0.1c0,0-0.1-0.1-0.1-0.1c-0.2-0.2-0.1-0.5,0.3-0.7
		c0.4-0.3,0.7-0.3,0.9,0.1c0,0.1,0.1,0.2,0.2,0.4c0.1,0.2,0.2,0.3,0.3,0.4L30.3,147.6L30.3,147.6z"/>
	<path d="M30.2,151.7l-0.2,0.2c0.6,0,1.1,0.3,1.4,0.7c0.3,0.4,0.4,0.8,0.3,1.2s-0.4,0.8-0.8,1.2l-1.9,1.5c-0.3,0.2-0.4,0.4-0.3,0.4
		c0,0,0,0,0,0c0,0,0,0,0,0c0,0,0,0.1,0.1,0.1c0.2,0.2,0.1,0.4-0.2,0.7c-0.2,0.1-0.4,0.2-0.5,0.2s-0.3-0.1-0.4-0.2
		c0-0.1-0.1-0.2-0.2-0.4c-0.1-0.1-0.2-0.2-0.2-0.4c-0.1-0.1-0.1-0.2-0.3-0.3c-0.1-0.1-0.2-0.2-0.3-0.3c-0.2-0.3-0.1-0.5,0.2-0.8
		c0.2-0.2,0.4-0.2,0.6-0.2c0.1,0.1,0.3,0,0.5-0.1l1.5-1.1c0.5-0.4,0.6-0.7,0.4-1c-0.2-0.3-0.6-0.3-1.2,0.2l-1.4,1
		c-0.2,0.2-0.3,0.3-0.3,0.5s-0.1,0.3-0.3,0.5c-0.4,0.3-0.7,0.3-0.9,0c-0.1-0.1-0.1-0.2-0.2-0.3s-0.2-0.3-0.2-0.3
		c-0.1-0.1-0.1-0.2-0.3-0.3c-0.1-0.1-0.2-0.2-0.3-0.3c-0.2-0.3-0.2-0.6,0.2-0.9c0.3-0.2,0.5-0.2,0.7,0c0,0,0.1,0.1,0.1,0.1
		c0,0,0,0,0,0s0,0,0,0c0.1,0.1,0.2,0,0.5-0.2l1.9-1.4c0.3-0.2,0.4-0.3,0.3-0.4c0,0,0,0-0.1-0.1c0,0-0.1-0.1-0.1-0.1
		c-0.2-0.2-0.1-0.5,0.3-0.7c0.4-0.3,0.7-0.3,0.9,0c0,0,0.1,0.1,0.2,0.3c0.1,0.2,0.2,0.3,0.3,0.4c0,0,0.1,0.1,0.1,0.2
		c0.1,0.1,0.1,0.1,0.1,0.2C30.4,151.4,30.4,151.6,30.2,151.7z"/>
	<path d="M34.2,156.1c0.1,0.2,0.1,0.3-0.1,0.5l-2.8,2.4c-0.3,0.2-0.3,0.4-0.3,0.5c0,0,0,0,0.1,0.1c0,0,0.1,0.1,0.1,0.1
		c0.2,0.2,0.1,0.4-0.2,0.7c-0.4,0.3-0.7,0.3-1,0.1c-0.1-0.1-0.1-0.2-0.2-0.4c-0.1-0.2-0.2-0.3-0.2-0.4c-0.1-0.1-0.3-0.3-0.5-0.5
		c-0.1-0.1-0.1-0.1-0.2-0.2c-0.3-0.3-0.2-0.6,0.2-1c0.3-0.2,0.5-0.3,0.7-0.1c0,0,0.1,0.1,0.1,0.1c0,0,0,0,0,0c0,0,0,0,0,0
		c0.1,0.1,0.2,0,0.5-0.2l1.8-1.5c0.3-0.2,0.3-0.4,0.3-0.4c0,0,0,0-0.1-0.1c0,0-0.1-0.1-0.1-0.1c-0.2-0.2-0.1-0.5,0.2-0.7
		c0.4-0.3,0.7-0.3,0.9-0.1c0.1,0.1,0.1,0.2,0.3,0.4c0.1,0.2,0.2,0.3,0.3,0.4L34.2,156.1z M35.9,155.2c-0.2,0.1-0.4,0.1-0.7,0l-1-0.6
		c-0.2-0.1-0.3-0.2-0.4-0.3c-0.1-0.1-0.1-0.2-0.1-0.4c0-0.2,0.1-0.3,0.2-0.4c0.1-0.1,0.3-0.1,0.4-0.1c0,0,0.2,0.1,0.4,0.2l1.1,0.5
		c0.1,0.1,0.2,0.1,0.2,0.1c0.1,0.1,0.1,0.3,0.1,0.5C36.2,154.9,36.1,155.1,35.9,155.2z"/>
	<path d="M37.3,161.9l-1.9,1.9c-0.1,0.1-0.2,0.3-0.1,0.4c0.1,0.1,0.3,0.1,0.5-0.1l0.5-0.5c0.3-0.3,0.5-0.3,0.7,0
		c0.2,0.2,0.2,0.3,0.2,0.5c0,0.2-0.2,0.4-0.5,0.7c-0.4,0.4-0.7,0.6-1,0.7c-0.6,0.2-1.1,0.1-1.5-0.4c-0.3-0.3-0.5-0.7-0.5-1.1
		c0-0.4,0.2-0.8,0.5-1.1l2-2c0.2-0.2,0.2-0.3,0.1-0.4l-0.2-0.2c-0.2-0.2-0.2-0.5,0.1-0.8c0.2-0.2,0.4-0.3,0.5-0.3
		c0.1,0,0.3,0.1,0.4,0.2l0.2,0.2c0.1,0.1,0.2,0.1,0.3,0l0.6-0.6c0.3-0.3,0.6-0.2,0.9,0.2c0.2,0.2,0.3,0.4,0.3,0.5s-0.1,0.3-0.2,0.4
		l-0.6,0.6c-0.1,0.1-0.1,0.2,0,0.4l0.4,0.4c0.3,0.3,0.3,0.6-0.1,0.9c-0.2,0.2-0.3,0.3-0.4,0.3c-0.1,0-0.2,0-0.4-0.2l-0.4-0.4
		c-0.1-0.1-0.2-0.2-0.3-0.2S37.4,161.8,37.3,161.9z"/>
	<path d="M40.6,167.3l-1.8-1.6l-0.1,0.1c-0.6,0.6-0.7,1.1-0.3,1.5c0.3,0.2,0.6,0.2,0.9,0c0.2-0.1,0.3-0.2,0.4-0.2
		c0.1,0,0.2,0.1,0.4,0.2c0.4,0.3,0.4,0.7,0,1.1c-0.3,0.4-0.7,0.5-1.2,0.5c-0.5,0-1-0.2-1.4-0.6c-0.6-0.5-0.8-1.1-0.8-1.8
		c0-0.7,0.4-1.4,1-2.1c0.7-0.8,1.4-1.2,2.1-1.4s1.3,0,1.9,0.5c0.5,0.4,0.7,1,0.7,1.6c0,0.6-0.3,1.2-0.9,1.8
		c-0.2,0.2-0.4,0.4-0.5,0.4C40.9,167.5,40.7,167.5,40.6,167.3z M39.6,164.8l1,0.9l0.1-0.1c0.2-0.2,0.3-0.4,0.3-0.5
		c0-0.2,0-0.3-0.2-0.5C40.5,164.3,40.1,164.4,39.6,164.8z"/>
	<path d="M44.5,168.8c0.1-0.1,0.2-0.2,0.4-0.3c0-0.2,0-0.4-0.2-0.5c-0.2-0.2-0.5-0.2-0.8,0s-0.7,0.4-1,0.8c-0.3,0.4-0.5,0.8-0.6,1.1
		c-0.1,0.3,0,0.6,0.2,0.7c0.2,0.2,0.5,0.1,0.9-0.2c0.2-0.2,0.4-0.3,0.5-0.3c0.1,0,0.3,0,0.5,0.2c0.4,0.3,0.4,0.7,0,1.1
		c-0.3,0.4-0.8,0.7-1.3,0.7c-0.5,0.1-1-0.1-1.5-0.5c-0.6-0.5-0.8-1-0.8-1.7c0-0.7,0.3-1.4,0.9-2.1c0.6-0.8,1.3-1.3,2-1.5
		c0.7-0.2,1.4,0,1.9,0.4c0.4,0.3,0.6,0.7,0.7,1.2c0.1,0.5-0.1,0.9-0.4,1.3c-0.2,0.2-0.4,0.4-0.7,0.4c-0.2,0-0.5,0-0.7-0.2
		c-0.2-0.1-0.3-0.3-0.3-0.5S44.4,169,44.5,168.8z"/>
	<path d="M50.1,168.6l-1.2,1.7c0.5-0.1,0.9-0.1,1.3,0.2c0.4,0.3,0.5,0.6,0.5,1.1c0,0.4-0.2,0.9-0.5,1.4l-1.3,1.8
		c-0.2,0.3-0.2,0.4-0.1,0.5c0,0,0,0,0,0c0,0,0,0,0,0c0,0,0,0,0.1,0.1c0.2,0.1,0.2,0.4,0,0.7c-0.3,0.4-0.6,0.5-0.9,0.3
		c-0.1-0.1-0.2-0.1-0.3-0.3c-0.1-0.1-0.2-0.2-0.3-0.3c-0.1-0.1-0.2-0.1-0.3-0.2c-0.2-0.1-0.3-0.2-0.3-0.2c-0.3-0.2-0.3-0.5,0-0.9
		c0.2-0.2,0.3-0.3,0.5-0.3c0.1,0,0.3-0.1,0.4-0.3l1-1.4c0.3-0.4,0.4-0.6,0.4-0.8c0-0.2,0-0.3-0.2-0.5c-0.3-0.2-0.7,0-1.2,0.7
		l-0.9,1.2c-0.1,0.1-0.2,0.3-0.2,0.3c0,0.1,0,0.1,0.1,0.3c0.1,0.1,0,0.3-0.2,0.6c-0.3,0.4-0.6,0.5-0.8,0.3c-0.1,0-0.2-0.1-0.3-0.2
		c-0.1-0.1-0.2-0.2-0.3-0.2c-0.1-0.1-0.2-0.1-0.4-0.2c-0.2-0.1-0.3-0.2-0.4-0.2c-0.3-0.2-0.3-0.5,0-1c0.2-0.3,0.4-0.4,0.6-0.3
		c0,0,0.1,0.1,0.1,0.1c0,0,0,0,0,0c0,0,0,0,0,0c0.1,0.1,0.3,0,0.4-0.3l2.6-3.6c0.2-0.3,0.2-0.4,0.2-0.5c0,0,0,0,0,0c0,0,0,0-0.1,0
		c-0.1,0-0.1,0-0.1-0.1c-0.2-0.2-0.2-0.4,0-0.8c0.3-0.4,0.6-0.5,0.9-0.3c0.1,0,0.2,0.1,0.3,0.3c0.1,0.1,0.2,0.2,0.3,0.3l0.4,0.2
		c0,0,0,0,0,0C50.3,168.1,50.3,168.3,50.1,168.6z"/>
	<path d="M53.6,173.3l-0.1,0.2c0.6-0.2,1.1-0.2,1.6,0.1c0.4,0.2,0.6,0.6,0.7,1s-0.1,0.9-0.4,1.4l-1.3,2.1c-0.2,0.3-0.2,0.5-0.1,0.5
		c0,0,0,0,0.1,0c0,0,0,0,0,0c0,0,0.1,0,0.1,0.1c0.2,0.1,0.2,0.4,0,0.7c-0.1,0.2-0.3,0.3-0.4,0.4s-0.3,0-0.5,0
		c-0.1,0-0.2-0.1-0.3-0.3c-0.1-0.1-0.2-0.2-0.4-0.2c-0.1,0-0.2-0.1-0.4-0.2c-0.2-0.1-0.3-0.1-0.4-0.2c-0.3-0.2-0.3-0.5-0.1-0.9
		c0.2-0.3,0.3-0.4,0.5-0.4s0.3-0.1,0.4-0.3l1-1.6c0.3-0.5,0.3-0.9,0-1.1c-0.3-0.2-0.7,0-1.1,0.6l-0.9,1.5c-0.2,0.2-0.2,0.4-0.1,0.6
		c0.1,0.1,0,0.3-0.1,0.5c-0.3,0.4-0.6,0.6-0.9,0.4c-0.1-0.1-0.2-0.1-0.3-0.2c-0.1-0.1-0.3-0.2-0.3-0.2c-0.1,0-0.2-0.1-0.4-0.2
		c-0.2-0.1-0.3-0.1-0.4-0.2c-0.3-0.2-0.4-0.5-0.1-1c0.2-0.3,0.4-0.4,0.6-0.3c0,0,0.1,0,0.1,0.1c0,0,0,0,0.1,0c0,0,0,0,0,0
		c0.1,0.1,0.2,0,0.4-0.3l1.2-2c0.2-0.3,0.2-0.5,0.1-0.5c0,0-0.1,0-0.1,0c-0.1,0-0.1,0-0.1-0.1c-0.2-0.1-0.2-0.4,0-0.8
		c0.3-0.4,0.5-0.5,0.8-0.3c0,0,0.1,0.1,0.3,0.2c0.2,0.1,0.3,0.2,0.4,0.3c0,0,0.1,0.1,0.2,0.1s0.1,0.1,0.2,0.1
		C53.7,173,53.7,173.1,53.6,173.3z"/>
	<path d="M58.9,175.9c0.2,0.1,0.2,0.3,0.1,0.5l-1.8,3.3c-0.2,0.3-0.2,0.5-0.1,0.5c0,0,0.1,0,0.1,0.1c0,0,0.1,0,0.1,0.1
		c0.2,0.1,0.2,0.4,0.1,0.7c-0.2,0.4-0.5,0.6-0.9,0.4c-0.1,0-0.2-0.1-0.4-0.2c-0.2-0.1-0.3-0.2-0.4-0.2c-0.2-0.1-0.4-0.2-0.7-0.3
		c-0.1,0-0.2-0.1-0.3-0.2c-0.4-0.2-0.4-0.5-0.2-1c0.2-0.3,0.4-0.4,0.6-0.3c0,0,0.1,0,0.1,0.1c0,0,0,0,0.1,0c0,0,0,0,0,0
		c0.1,0.1,0.2-0.1,0.4-0.3l1.1-2c0.2-0.3,0.2-0.5,0.1-0.5c0,0-0.1,0-0.1,0c-0.1,0-0.1,0-0.1,0c-0.2-0.1-0.3-0.4,0-0.8
		c0.2-0.4,0.5-0.5,0.8-0.4c0.1,0,0.2,0.1,0.4,0.2c0.1,0.1,0.3,0.2,0.4,0.2L58.9,175.9z M58.5,175.4c-0.2-0.1-0.4-0.3-0.4-0.6
		c-0.1-0.3,0-0.5,0.1-0.8c0.1-0.3,0.3-0.5,0.6-0.5c0.2-0.1,0.5-0.1,0.7,0.1c0.2,0.1,0.4,0.3,0.4,0.6s0,0.5-0.1,0.8
		c-0.1,0.3-0.3,0.4-0.6,0.5S58.7,175.5,58.5,175.4z"/>
	<path d="M62.7,176l-1.7,3.6l0.8-0.4c0.2-0.1,0.2-0.1,0.3-0.2c0,0,0-0.1,0-0.1l-0.1-0.2c-0.1-0.1-0.1-0.3,0.1-0.5
		c0.2-0.4,0.4-0.5,0.7-0.3c0.1,0,0.3,0.1,0.5,0.2c0.2,0.1,0.4,0.2,0.5,0.3c0.1,0,0.2,0.1,0.4,0.2s0.3,0.1,0.4,0.2
		c0.4,0.2,0.4,0.5,0.3,0.9c-0.2,0.4-0.4,0.5-0.7,0.4l-0.1,0l-0.2-0.1l-0.2,0l-0.3,0.1l-0.9,0.3l0,2.3c0,0.2,0,0.3,0.1,0.4l0.2,0.1
		c0.3,0.1,0.3,0.4,0.1,0.8c-0.2,0.4-0.5,0.6-0.8,0.4c-0.1,0-0.2-0.1-0.3-0.2s-0.3-0.2-0.3-0.2c-0.1-0.1-0.3-0.1-0.4-0.2
		c-0.2-0.1-0.4-0.1-0.4-0.1c-0.3-0.2-0.4-0.5-0.2-0.9c0.1-0.2,0.2-0.4,0.3-0.4l0.2-0.1c0,0,0,0,0.1-0.1l0,0c0,0,0-0.1,0-0.2l0-1.1
		l-0.7,0.2l-0.2,0.5c-0.1,0.1-0.1,0.2,0,0.3c0.1,0.1,0.2,0.2,0.2,0.3c0,0.1,0,0.2-0.1,0.3c-0.2,0.5-0.5,0.6-0.8,0.5
		c0,0-0.1-0.1-0.3-0.2c-0.1-0.1-0.3-0.2-0.4-0.2c-0.1-0.1-0.3-0.1-0.5-0.2c-0.1,0-0.3-0.1-0.4-0.1c-0.4-0.2-0.4-0.5-0.2-0.9
		c0.2-0.3,0.4-0.5,0.6-0.3c0.1,0,0.1,0,0.1,0.1c0,0,0,0,0.1,0c0,0,0,0,0,0c0.1,0.1,0.2-0.1,0.4-0.4l1.9-4c0.1-0.3,0.2-0.5,0.1-0.5
		c0,0-0.1,0-0.1,0c0,0,0,0-0.1,0c0,0,0,0-0.1,0c-0.3-0.1-0.3-0.4-0.1-0.8c0.2-0.4,0.5-0.6,0.8-0.4c0.1,0,0.2,0.1,0.4,0.2
		c0.2,0.1,0.3,0.2,0.4,0.2l0.6,0.2C62.7,175.6,62.8,175.8,62.7,176z"/>
	<path d="M66.9,186.4c-0.4-0.2-0.6-0.5-0.6-0.9c-0.5,0.2-1.1,0.2-1.6,0c-0.5-0.2-0.8-0.5-0.9-0.9c-0.2-0.4-0.1-0.9,0.1-1.4
		c0.2-0.5,0.5-0.9,0.9-1.1c0.4-0.2,0.9-0.2,1.5-0.1c0.4,0.1,0.6,0.1,0.8,0c0.2,0,0.3-0.2,0.4-0.4c0.1-0.4,0.1-0.6-0.2-0.7
		c-0.2-0.1-0.3,0-0.3,0.1c0,0.1-0.1,0.1-0.1,0.2l0,0c-0.1,0.2-0.2,0.3-0.4,0.4c-0.2,0.1-0.4,0.1-0.6,0c-0.2-0.1-0.4-0.3-0.5-0.5
		c-0.1-0.2-0.1-0.5,0-0.7c0.2-0.4,0.4-0.6,0.9-0.7s0.9,0,1.4,0.2c0.6,0.3,1,0.6,1.2,1c0.2,0.4,0.1,0.9-0.1,1.6l-0.9,2.2
		c-0.1,0.3-0.1,0.4,0,0.4c0,0,0.1,0,0.1,0c0,0,0,0,0,0c0,0,0,0,0,0c0.2,0.1,0.3,0.3,0.1,0.7c-0.1,0.2-0.3,0.4-0.5,0.5
		C67.4,186.5,67.1,186.5,66.9,186.4z M66.6,183.5l0.1-0.2l-0.1,0l-0.4,0c-0.3,0-0.5,0-0.6,0c-0.1,0.1-0.2,0.2-0.3,0.4
		c-0.1,0.4-0.1,0.6,0.2,0.7c0.2,0.1,0.4,0.1,0.5,0c0.2-0.1,0.3-0.2,0.4-0.4L66.6,183.5z"/>
	<path d="M75.4,182.7l-0.4,4l1.8-3.6c0-0.1,0.1-0.1,0.1-0.2c0-0.1,0-0.2,0-0.2l-0.1-0.1c-0.2-0.1-0.2-0.4-0.1-0.8
		c0.1-0.5,0.4-0.7,0.8-0.6c0.1,0,0.3,0.1,0.5,0.2s0.4,0.2,0.5,0.2c0.1,0,0.4,0.1,0.7,0.1c0.1,0,0.2,0,0.3,0.1
		c0.2,0.1,0.3,0.2,0.4,0.4c0.1,0.2,0.1,0.4,0,0.7c-0.1,0.2-0.2,0.4-0.3,0.5c-0.1,0.1-0.3,0.2-0.4,0.1l-0.2-0.1c-0.1,0-0.2,0-0.3,0.2
		l-3,5c-0.2,0.3-0.4,0.5-0.6,0.4c-0.1,0-0.2-0.1-0.3-0.1c-0.1-0.1-0.2-0.1-0.3-0.1c-0.2,0-0.3-0.1-0.5-0.1c-0.2,0-0.2,0-0.3-0.1
		c-0.2-0.1-0.4-0.3-0.4-0.7l0.2-5.8c0-0.2,0-0.3-0.1-0.3l-0.2-0.1c-0.1,0-0.2-0.1-0.2-0.3c0-0.2,0-0.4,0-0.5
		c0.1-0.3,0.2-0.4,0.4-0.6s0.4-0.2,0.6-0.1c0.1,0,0.2,0.1,0.4,0.2c0.2,0.1,0.4,0.1,0.5,0.2c0.2,0.1,0.4,0.1,0.6,0.1
		c0.2,0,0.4,0.1,0.5,0.1c0.4,0.1,0.5,0.4,0.4,0.9c-0.1,0.4-0.3,0.6-0.5,0.6c-0.2,0-0.3,0.1-0.3,0.2
		C75.4,182.5,75.4,182.6,75.4,182.7z"/>
	<path d="M82.3,187.9l-2.4-0.5l0,0.2c-0.2,0.8,0,1.3,0.5,1.4c0.4,0.1,0.6-0.1,0.8-0.4c0.1-0.2,0.2-0.3,0.3-0.4c0.1,0,0.2,0,0.5,0
		c0.5,0.1,0.7,0.4,0.6,0.9c-0.1,0.5-0.4,0.8-0.8,1.1c-0.4,0.2-0.9,0.3-1.5,0.2c-0.8-0.2-1.3-0.5-1.6-1.1c-0.3-0.6-0.4-1.4-0.2-2.3
		c0.2-1,0.6-1.7,1.1-2.2c0.5-0.5,1.1-0.6,1.9-0.5c0.6,0.1,1.1,0.5,1.4,1s0.3,1.2,0.2,2c-0.1,0.3-0.1,0.5-0.2,0.6
		S82.5,187.9,82.3,187.9z M80.2,186.2l1.3,0.3l0-0.1c0.1-0.2,0-0.4,0-0.6c-0.1-0.2-0.2-0.3-0.4-0.3
		C80.7,185.4,80.4,185.6,80.2,186.2z"/>
	<path d="M86.3,183.6l-0.3,2c0.4-0.3,0.8-0.5,1.3-0.4c0.4,0.1,0.8,0.3,1,0.7c0.2,0.4,0.3,0.9,0.2,1.5l-0.3,2.2
		c-0.1,0.3,0,0.5,0.1,0.5c0,0,0,0,0.1,0c0,0,0,0,0.1,0c0,0,0.1,0,0.1,0c0.3,0,0.4,0.2,0.3,0.6c-0.1,0.5-0.3,0.7-0.7,0.7
		c-0.1,0-0.2,0-0.4-0.1c-0.2,0-0.3-0.1-0.4-0.1c-0.1,0-0.2,0-0.4,0c-0.2,0-0.3,0-0.4,0c-0.4-0.1-0.5-0.3-0.4-0.8
		c0-0.3,0.1-0.4,0.3-0.5c0.1-0.1,0.2-0.2,0.3-0.5l0.3-1.6c0.1-0.4,0.1-0.7,0-0.9c-0.1-0.2-0.2-0.3-0.4-0.3c-0.4-0.1-0.6,0.3-0.8,1.2
		l-0.2,1.5c0,0.2,0,0.3,0,0.3c0,0.1,0.1,0.1,0.2,0.2c0.1,0.1,0.2,0.3,0.1,0.6c-0.1,0.5-0.3,0.7-0.6,0.6c-0.1,0-0.2,0-0.4-0.1
		c-0.2,0-0.3-0.1-0.4-0.1c-0.1,0-0.3,0-0.5,0c-0.2,0-0.4,0-0.5,0c-0.4-0.1-0.5-0.3-0.5-0.8c0.1-0.4,0.2-0.6,0.5-0.5
		c0.1,0,0.1,0,0.1,0c0,0,0,0,0.1,0c0,0,0,0,0,0c0.1,0,0.2-0.1,0.3-0.5l0.7-4.4c0.1-0.3,0-0.5-0.1-0.5c0,0,0,0-0.1,0c0,0,0,0-0.1,0
		c-0.1,0-0.1,0-0.1,0c-0.3,0-0.4-0.3-0.3-0.7c0.1-0.5,0.3-0.7,0.7-0.6c0.1,0,0.2,0,0.4,0.1c0.2,0.1,0.3,0.1,0.4,0.1l0.5,0
		c0,0,0,0,0.1,0C86.3,183.1,86.4,183.3,86.3,183.6z"/>
	<path d="M91.6,185.9c0.2,0,0.3,0.2,0.3,0.5l-0.4,3.7c0,0.3,0,0.5,0.1,0.5c0,0,0.1,0,0.1,0s0.1,0,0.1,0c0.3,0,0.4,0.2,0.3,0.6
		c-0.1,0.5-0.3,0.7-0.7,0.7c-0.1,0-0.2,0-0.4-0.1c-0.2,0-0.3-0.1-0.4-0.1c-0.2,0-0.4,0-0.8,0c-0.1,0-0.2,0-0.3,0
		c-0.4,0-0.6-0.3-0.5-0.8c0-0.4,0.2-0.6,0.5-0.5c0,0,0.1,0,0.1,0c0,0,0,0,0.1,0c0,0,0,0,0,0c0.1,0,0.2-0.1,0.2-0.5l0.2-2.3
		c0-0.3,0-0.5-0.1-0.5c0,0-0.1,0-0.1,0c-0.1,0-0.1,0-0.1,0c-0.3,0-0.4-0.3-0.3-0.7c0-0.5,0.3-0.7,0.6-0.7c0.1,0,0.2,0,0.4,0.1
		c0.2,0,0.3,0.1,0.4,0.1L91.6,185.9z M91.1,185.4c-0.3,0-0.5-0.1-0.6-0.4s-0.2-0.5-0.2-0.8c0-0.3,0.1-0.6,0.3-0.7s0.4-0.3,0.7-0.2
		c0.3,0,0.5,0.1,0.6,0.4c0.2,0.2,0.2,0.5,0.2,0.8c0,0.3-0.1,0.5-0.3,0.7C91.6,185.4,91.4,185.5,91.1,185.4z"/>
	<path d="M95.2,184.4l-0.2,4l0.6-0.7c0.1-0.1,0.2-0.2,0.2-0.3c0,0,0-0.1,0-0.1l-0.2-0.1c-0.1-0.1-0.2-0.3-0.2-0.5
		c0-0.4,0.2-0.6,0.6-0.6c0.1,0,0.3,0,0.5,0.1c0.2,0,0.4,0,0.5,0.1c0.1,0,0.3,0,0.5,0c0.2,0,0.4,0,0.5,0c0.4,0,0.6,0.3,0.6,0.7
		c0,0.4-0.2,0.6-0.5,0.6l-0.1,0l-0.2,0l-0.2,0.1l-0.2,0.2l-0.7,0.6l0.9,2.2c0.1,0.2,0.2,0.3,0.2,0.3l0.2,0c0.3,0,0.4,0.2,0.4,0.7
		c0,0.5-0.2,0.7-0.6,0.7c-0.1,0-0.2,0-0.4,0s-0.3,0-0.4,0c-0.2,0-0.3,0-0.5,0c-0.3,0-0.4,0-0.4,0c-0.4,0-0.6-0.3-0.5-0.8
		c0-0.3,0.1-0.4,0.1-0.5l0.1-0.1c0,0,0,0,0-0.1l0,0c0,0,0-0.1-0.1-0.2l-0.5-1l-0.5,0.5l0,0.5c0,0.1,0,0.2,0.1,0.3
		c0.1,0.1,0.2,0.2,0.3,0.2c0,0.1,0.1,0.2,0.1,0.3c0,0.5-0.2,0.8-0.5,0.8c0,0-0.2,0-0.4,0c-0.1,0-0.3,0-0.5-0.1c-0.1,0-0.3,0-0.5,0
		c-0.1,0-0.3,0-0.4,0c-0.4,0-0.6-0.3-0.6-0.8c0-0.4,0.1-0.6,0.4-0.5c0.1,0,0.1,0,0.1,0c0,0,0,0,0.1,0c0,0,0,0,0,0
		c0.1,0,0.2-0.2,0.2-0.5l0.2-4.4c0-0.3,0-0.5-0.1-0.5c0,0-0.1,0-0.1,0c0,0,0,0-0.1,0c0,0-0.1,0-0.1,0c-0.3,0-0.4-0.2-0.4-0.7
		c0-0.5,0.2-0.7,0.6-0.7c0.1,0,0.2,0,0.5,0.1c0.2,0,0.3,0,0.4,0l0.6,0C95.1,184,95.2,184.2,95.2,184.4z"/>
	<path d="M102.4,192l0-0.3c-0.4,0.4-0.9,0.7-1.4,0.7c-1,0-1.5-0.6-1.5-1.9l0-2.3c0-0.3-0.1-0.5-0.2-0.5c0,0-0.1,0-0.1,0
		c-0.1,0-0.1,0-0.1,0c-0.3,0-0.4-0.2-0.4-0.6c0-0.5,0.2-0.8,0.6-0.8c0.1,0,0.2,0,0.4,0c0.2,0,0.3,0,0.4,0l0.5-0.1c0,0,0,0,0.1,0
		c0.2,0,0.3,0.1,0.4,0.3l0.1,3.4c0,0.6,0.2,0.9,0.6,0.9c0.4,0,0.6-0.4,0.6-1.1l0-1.7c0-0.3-0.1-0.5-0.2-0.5c0,0-0.1,0-0.1,0
		c0,0-0.1,0-0.1,0c-0.3,0-0.4-0.2-0.4-0.6c0-0.2,0-0.4,0.2-0.6c0.1-0.1,0.2-0.2,0.4-0.2c0.1,0,0.2,0,0.4,0s0.3,0,0.4,0l0.6-0.1
		c0,0,0.1,0,0.1,0c0.2,0,0.4,0.1,0.4,0.3l0.1,3.9c0,0.3,0.1,0.5,0.2,0.5c0,0,0,0,0.1,0c0,0,0,0,0,0c0,0,0.1,0,0.1,0
		c0.3,0,0.4,0.2,0.4,0.6c0,0.2,0,0.4-0.2,0.5s-0.2,0.2-0.4,0.2c-0.1,0-0.2,0-0.4,0c-0.2,0-0.3,0-0.4,0c-0.1,0-0.2,0-0.4,0
		c0,0-0.1,0-0.1,0C102.5,192.2,102.4,192.1,102.4,192z"/>
	<path d="M106,183.9c0.2,0,0.3,0.1,0.4,0.4l0.4,5.8c0,0.3,0.1,0.5,0.2,0.5c0,0,0,0,0,0c0,0,0,0,0.1,0c0,0,0.1,0,0.1,0
		c0.3,0,0.4,0.2,0.4,0.5c0,0.5-0.1,0.8-0.5,0.8c-0.1,0-0.3,0-0.5,0c-0.2,0-0.4,0-0.6,0c-0.1,0-0.2,0-0.4,0.1s-0.3,0.1-0.4,0.1
		c-0.4,0-0.6-0.2-0.6-0.7c0-0.4,0.1-0.6,0.3-0.6c0.1,0,0.1,0,0.1,0c0,0,0,0,0.1,0c0,0,0,0,0,0c0.1,0,0.2-0.2,0.2-0.5l-0.3-4.4
		c0-0.3-0.1-0.5-0.2-0.5c0,0-0.1,0-0.1,0s-0.1,0-0.1,0c-0.3,0-0.4-0.2-0.5-0.6c0-0.5,0.1-0.7,0.5-0.8c0.1,0,0.2,0,0.5,0
		c0.2,0,0.4,0,0.5,0L106,183.9L106,183.9z"/>
	<path d="M111.5,191.3l0-0.3c-0.4,0.5-0.8,0.8-1.3,0.8c-1,0.1-1.6-0.5-1.7-1.8l-0.3-2.3c0-0.3-0.1-0.5-0.2-0.5c0,0-0.1,0-0.1,0
		c-0.1,0-0.1,0-0.1,0c-0.3,0-0.4-0.1-0.4-0.5c-0.1-0.5,0.1-0.8,0.5-0.8c0.1,0,0.2,0,0.4,0c0.2,0,0.3,0,0.4,0l0.5-0.1c0,0,0,0,0.1,0
		c0.2,0,0.4,0.1,0.4,0.3l0.4,3.3c0.1,0.6,0.3,0.9,0.6,0.8c0.4,0,0.6-0.4,0.5-1.1l-0.2-1.6c0-0.3-0.1-0.5-0.2-0.5c0,0-0.1,0-0.1,0
		s-0.1,0-0.1,0c-0.3,0-0.4-0.1-0.5-0.5c0-0.2,0-0.4,0.1-0.6c0.1-0.2,0.2-0.2,0.4-0.3c0.1,0,0.2,0,0.4,0c0.2,0,0.3,0,0.4,0l0.6-0.1
		c0,0,0.1,0,0.1,0c0.2,0,0.4,0.1,0.4,0.3l0.4,3.8c0,0.3,0.1,0.5,0.2,0.5c0,0,0,0,0.1,0c0,0,0,0,0,0c0,0,0.1,0,0.1,0
		c0.3,0,0.4,0.1,0.4,0.5c0,0.2,0,0.4-0.1,0.6c-0.1,0.1-0.2,0.2-0.4,0.3c-0.1,0-0.2,0-0.4,0s-0.3,0-0.4,0c-0.1,0-0.2,0-0.4,0.1
		c0,0-0.1,0-0.1,0C111.6,191.5,111.5,191.4,111.5,191.3z"/>
	<path d="M114.9,185.1l0.1,0.3c0.2-0.5,0.6-0.7,1-0.8c0.4-0.1,0.8,0.1,1.3,0.4c0.4-0.5,0.8-0.8,1.3-0.9c0.5-0.1,0.9,0,1.2,0.3
		s0.6,0.7,0.7,1.2l0.5,2.5c0.1,0.3,0.2,0.5,0.3,0.5c0,0,0,0,0,0c0,0,0,0,0.1,0c0,0,0.1,0,0.1,0c0.3,0,0.4,0.1,0.5,0.5
		c0,0.2,0,0.4-0.1,0.6s-0.2,0.3-0.4,0.3c0,0-0.1,0-0.3,0c-0.1,0-0.3,0-0.5,0.1c-0.1,0-0.2,0.1-0.4,0.1c-0.2,0.1-0.3,0.1-0.4,0.1
		c-0.3,0.1-0.6-0.1-0.7-0.6c-0.1-0.3,0-0.5,0.1-0.6c0.1-0.1,0.1-0.3,0.1-0.5l-0.3-1.7c-0.1-0.7-0.4-1-0.7-0.9
		c-0.4,0.1-0.5,0.4-0.3,1.1l0.4,2c0,0.1,0.1,0.2,0.2,0.3c0.2,0.1,0.3,0.2,0.3,0.5c0.1,0.5,0,0.8-0.3,0.8c-0.1,0-0.2,0-0.3,0
		c-0.2,0-0.3,0-0.3,0c-0.1,0-0.2,0-0.3,0.1c-0.2,0.1-0.3,0.1-0.3,0.1c-0.4,0.1-0.6-0.2-0.7-0.7c0-0.2,0-0.4,0.1-0.5
		c0.1-0.1,0.1-0.2,0.1-0.3l-0.1-0.3l-0.3-1.7c-0.1-0.7-0.4-1-0.7-0.9c-0.4,0.1-0.5,0.5-0.3,1.1l0.4,1.9c0,0.1,0.1,0.2,0.1,0.2
		c0,0,0.1,0,0.2,0.1c0.2,0,0.3,0.2,0.3,0.5c0.1,0.5,0,0.8-0.4,0.9c-0.1,0-0.2,0-0.4,0s-0.3,0-0.4,0c-0.1,0-0.2,0.1-0.4,0.1
		c-0.2,0.1-0.3,0.1-0.4,0.1c-0.4,0.1-0.6-0.1-0.7-0.6c-0.1-0.4,0-0.6,0.3-0.6c0,0,0.1,0,0.1,0c0,0,0,0,0.1,0s0,0,0,0
		c0.1,0,0.1-0.2,0.1-0.5l-0.5-2.3c-0.1-0.3-0.1-0.5-0.3-0.5c0,0-0.1,0-0.1,0c-0.1,0-0.1,0-0.1,0c-0.3,0.1-0.4-0.1-0.5-0.6
		c-0.1-0.5,0-0.7,0.4-0.8c0.1,0,0.2,0,0.4,0c0.1,0,0.2,0,0.4-0.1c0.1,0,0.2-0.1,0.4-0.1c0.1,0,0.2-0.1,0.2-0.1
		C114.8,185,114.8,185,114.9,185.1z"/>
	<path d="M125.6,182.2c0.3-0.1,0.7-0.1,1.3,0.1c0-0.3,0.1-0.5,0.4-0.5c0.4-0.1,0.6,0,0.7,0.3l0.2,0.6l0.2,0.5c0.1,0.3,0,0.5-0.4,0.6
		c-0.2,0.1-0.3,0.1-0.4,0.1c-0.1,0-0.2-0.1-0.3-0.2c-0.3-0.3-0.5-0.4-0.8-0.3c-0.3,0.1-0.5,0.3-0.4,0.6c0.1,0.2,0.2,0.3,0.3,0.3
		c0.1,0,0.4,0,0.9,0c0.7-0.1,1.3,0.1,1.6,0.4c0.2,0.2,0.4,0.5,0.5,0.8c0.2,0.6,0.2,1.1,0,1.6c-0.2,0.5-0.6,0.8-1.1,0.9
		c-0.5,0.1-0.9,0.1-1.4-0.1c0,0.3-0.1,0.4-0.4,0.5c-0.4,0.1-0.6,0-0.7-0.3l-0.2-0.6l-0.1-0.3c0-0.1,0-0.1-0.1-0.2
		c0-0.1,0-0.1-0.1-0.1c-0.1-0.3,0-0.6,0.4-0.7c0.2-0.1,0.4-0.1,0.5-0.1c0.1,0,0.2,0.1,0.4,0.3c0.3,0.4,0.6,0.5,1,0.4
		c0.4-0.1,0.5-0.3,0.4-0.7c-0.1-0.3-0.3-0.4-0.7-0.4l-0.5,0.1c-1,0.1-1.6-0.3-1.9-1.2c-0.2-0.5-0.2-1,0-1.4S125.1,182.4,125.6,182.2
		z"/>
	<path d="M131.8,186.7c-0.3,0.1-0.5,0.1-0.8-0.1s-0.4-0.4-0.6-0.7c-0.1-0.3-0.1-0.6,0-0.9c0.1-0.3,0.3-0.5,0.6-0.6
		c0.3-0.1,0.5-0.1,0.8,0.1s0.4,0.4,0.6,0.7c0.1,0.3,0.1,0.6,0,0.9C132.2,186.4,132,186.6,131.8,186.7z"/>
	<path d="M133.2,179.8l0.1,0.2c0.2-0.5,0.5-0.9,0.8-1c0.3-0.1,0.6-0.1,0.9,0.1c0.3,0.2,0.5,0.4,0.7,0.8c0.1,0.3,0.2,0.6,0.1,0.9
		c-0.1,0.3-0.2,0.4-0.4,0.5c-0.2,0.1-0.4,0.1-0.6,0s-0.3-0.3-0.4-0.5c0-0.1-0.1-0.3-0.1-0.4c-0.2,0.4-0.1,1.1,0.3,2l0.3,0.8
		c0.1,0.3,0.3,0.5,0.4,0.5c0,0,0.1,0,0.1,0c0.1,0,0.2-0.1,0.2-0.1c0.1,0,0.2,0,0.3,0.1c0.1,0.1,0.2,0.2,0.3,0.4
		c0.1,0.2,0.1,0.4,0,0.5c0,0.2-0.1,0.3-0.3,0.3c-0.1,0-0.2,0.1-0.4,0.1c-0.1,0.1-0.3,0.1-0.5,0.2c-0.2,0.1-0.4,0.2-0.5,0.2
		c-0.2,0.1-0.4,0.2-0.5,0.2c-0.2,0.1-0.3,0.1-0.5,0c-0.2-0.1-0.3-0.2-0.4-0.4c-0.1-0.4-0.1-0.6,0.1-0.7c0,0,0.1,0,0.1,0
		c0,0,0,0,0.1,0s0,0,0,0c0.1,0,0.1-0.2,0-0.5l-0.9-2.2c-0.1-0.3-0.2-0.4-0.3-0.4c0,0-0.1,0-0.1,0.1c0,0-0.1,0.1-0.1,0.1
		c-0.3,0.1-0.5,0-0.6-0.4c-0.2-0.4-0.1-0.7,0.2-0.9c0.1,0,0.2-0.1,0.3-0.1c0.1,0,0.3-0.1,0.3-0.1c0.1,0,0.2-0.1,0.4-0.2
		c0.1,0,0.1-0.1,0.1-0.1C133.1,179.6,133.2,179.6,133.2,179.8z"/>
	<path d="M138.8,183.8c-0.3,0.1-0.5,0.1-0.8,0c-0.3-0.1-0.5-0.4-0.6-0.7c-0.1-0.3-0.2-0.6-0.1-0.9s0.2-0.5,0.5-0.6
		c0.3-0.1,0.5-0.1,0.8,0s0.5,0.4,0.6,0.7c0.1,0.3,0.2,0.6,0.1,0.9C139.2,183.4,139.1,183.6,138.8,183.8z"/>
	<path d="M142.8,181.8c-0.7,0.3-1.3,0.4-1.9,0.1c-0.6-0.3-1.2-0.9-1.6-1.8c-0.5-0.9-0.6-1.7-0.5-2.4c0.1-0.7,0.5-1.2,1.2-1.5
		c0.7-0.3,1.3-0.4,1.9-0.1c0.6,0.3,1.1,0.8,1.6,1.7c0.5,0.9,0.7,1.7,0.6,2.4C143.9,180.9,143.5,181.4,142.8,181.8z M140.6,177.5
		c-0.5,0.2-0.4,0.8,0,1.8c0,0,0,0.1,0.1,0.1c0.2,0.5,0.5,0.8,0.8,1s0.5,0.2,0.7,0.1c0.5-0.2,0.4-0.9-0.1-1.9c-0.2-0.5-0.5-0.8-0.8-1
		C141,177.4,140.8,177.4,140.6,177.5z"/>
	<path d="M146.7,179.6c-0.2,0.1-0.5,0.2-0.8,0.1c-0.3-0.1-0.5-0.3-0.7-0.6c-0.2-0.3-0.2-0.6-0.2-0.9c0-0.3,0.2-0.5,0.4-0.7
		s0.5-0.2,0.8-0.1c0.3,0.1,0.5,0.3,0.7,0.6c0.2,0.3,0.2,0.6,0.2,0.9C147.1,179.2,147,179.5,146.7,179.6z"/>
	<path d="M149,170.7c0.3-0.2,0.7-0.3,1.2-0.3c-0.1-0.3,0-0.5,0.2-0.6c0.3-0.2,0.6-0.2,0.7,0l0.3,0.5l0.3,0.5
		c0.2,0.3,0.1,0.5-0.2,0.7c-0.2,0.1-0.3,0.2-0.4,0.2s-0.2,0-0.4-0.1c-0.3-0.2-0.6-0.2-0.9,0c-0.3,0.2-0.4,0.4-0.2,0.7
		c0.1,0.1,0.2,0.2,0.4,0.2s0.4-0.1,0.9-0.3c0.7-0.3,1.2-0.3,1.6-0.1c0.3,0.2,0.5,0.4,0.7,0.7c0.3,0.5,0.5,1,0.4,1.5
		c-0.1,0.5-0.3,0.9-0.8,1.2c-0.4,0.3-0.9,0.4-1.4,0.3c0.1,0.2,0.1,0.4-0.2,0.6c-0.3,0.2-0.6,0.2-0.8-0.1l-0.3-0.5l-0.2-0.3
		c0,0-0.1-0.1-0.1-0.2c0-0.1-0.1-0.1-0.1-0.1c-0.2-0.3-0.1-0.5,0.2-0.8c0.2-0.1,0.3-0.2,0.4-0.2c0.1,0,0.2,0.1,0.4,0.2
		c0.4,0.3,0.7,0.3,1,0.1c0.3-0.2,0.4-0.5,0.2-0.8c-0.2-0.2-0.4-0.3-0.8-0.1l-0.5,0.2c-0.9,0.4-1.7,0.2-2.2-0.6
		c-0.3-0.5-0.5-0.9-0.4-1.4C148.4,171.4,148.6,171,149,170.7z"/>
	<path d="M152.3,168c-0.2,0.2-0.5,0.2-0.7,0.2s-0.5-0.2-0.7-0.4c-0.2-0.2-0.3-0.5-0.3-0.8s0.1-0.5,0.3-0.6s0.4-0.2,0.7-0.2
		c0.3,0.1,0.5,0.2,0.7,0.4c0.2,0.2,0.3,0.5,0.2,0.8S152.5,167.8,152.3,168z M153,167.9c0.2-0.1,0.4-0.1,0.5,0.1l2.3,3
		c0.2,0.3,0.4,0.4,0.5,0.3c0,0,0,0,0.1-0.1s0.1-0.1,0.1-0.1c0.2-0.2,0.4-0.1,0.7,0.2c0.3,0.4,0.3,0.7,0,1c-0.1,0.1-0.2,0.1-0.4,0.2
		c-0.2,0.1-0.3,0.2-0.4,0.2c-0.1,0.1-0.3,0.3-0.6,0.5c-0.1,0.1-0.1,0.1-0.3,0.2c-0.3,0.3-0.6,0.2-1-0.2c-0.2-0.3-0.3-0.5,0-0.7
		c0,0,0.1-0.1,0.1-0.1c0,0,0,0,0,0c0,0,0,0,0,0c0.1-0.1,0-0.2-0.2-0.5l-1.4-1.8c-0.2-0.3-0.3-0.4-0.4-0.3c0,0,0,0-0.1,0.1
		c0,0-0.1,0.1-0.1,0.1c-0.2,0.2-0.5,0.1-0.7-0.3c-0.3-0.4-0.3-0.7,0-0.9c0.1,0,0.2-0.1,0.4-0.2c0.2-0.1,0.3-0.2,0.4-0.3L153,167.9z"
		/>
	<path d="M155.8,166.1l0.2,0.2c0-0.6,0.2-1.1,0.6-1.5c0.4-0.3,0.8-0.4,1.2-0.4c0.4,0.1,0.8,0.3,1.2,0.8l1.6,1.9
		c0.2,0.3,0.4,0.3,0.5,0.3c0,0,0,0,0,0c0,0,0,0,0,0c0,0,0.1,0,0.1-0.1c0.2-0.2,0.4-0.1,0.7,0.2c0.1,0.2,0.2,0.3,0.2,0.5
		c0,0.2-0.1,0.3-0.2,0.4c0,0-0.2,0.1-0.3,0.2c-0.1,0.1-0.2,0.2-0.3,0.3c-0.1,0.1-0.2,0.2-0.3,0.3c-0.1,0.1-0.2,0.2-0.3,0.3
		c-0.3,0.2-0.5,0.2-0.8-0.2c-0.2-0.2-0.3-0.4-0.2-0.6c0.1-0.2,0-0.3-0.2-0.5l-1.2-1.4c-0.4-0.5-0.8-0.6-1-0.4
		c-0.3,0.3-0.2,0.7,0.2,1.2l1.1,1.3c0.2,0.2,0.4,0.3,0.5,0.3c0.1,0,0.3,0.1,0.5,0.2c0.3,0.4,0.4,0.7,0.1,0.9
		c-0.1,0.1-0.2,0.1-0.3,0.2s-0.3,0.2-0.3,0.2c-0.1,0.1-0.2,0.2-0.3,0.3s-0.2,0.2-0.3,0.3c-0.3,0.3-0.6,0.2-0.9-0.2
		c-0.2-0.3-0.3-0.5-0.1-0.7c0,0,0.1-0.1,0.1-0.1c0,0,0,0,0,0c0,0,0,0,0,0c0.1-0.1,0-0.2-0.2-0.5l-1.5-1.8c-0.2-0.3-0.4-0.3-0.4-0.3
		c0,0,0,0-0.1,0.1c0,0-0.1,0.1-0.1,0.1c-0.2,0.2-0.5,0.1-0.7-0.2c-0.3-0.4-0.3-0.7-0.1-0.9c0,0,0.1-0.1,0.3-0.2
		c0.2-0.1,0.3-0.2,0.4-0.3c0,0,0.1-0.1,0.1-0.1c0.1-0.1,0.1-0.1,0.1-0.1C155.5,165.9,155.7,165.9,155.8,166.1z"/>
	<path d="M161.9,162.7c-0.1-0.1-0.2-0.3-0.2-0.5c-0.2,0-0.4,0-0.5,0.1c-0.2,0.2-0.2,0.5-0.1,0.8c0.1,0.3,0.3,0.7,0.7,1.1
		c0.4,0.4,0.7,0.6,1,0.8c0.3,0.1,0.6,0.1,0.8-0.1c0.2-0.2,0.2-0.5-0.1-0.9c-0.1-0.2-0.2-0.4-0.2-0.6c0-0.1,0.1-0.3,0.2-0.4
		c0.3-0.3,0.7-0.3,1.1,0.1c0.4,0.4,0.6,0.9,0.6,1.4s-0.2,1-0.6,1.4c-0.5,0.5-1.1,0.7-1.8,0.6c-0.7-0.1-1.3-0.4-1.9-1.1
		c-0.7-0.7-1.1-1.5-1.2-2.2c-0.1-0.7,0.1-1.4,0.7-1.9c0.4-0.4,0.8-0.6,1.3-0.6c0.5,0,0.9,0.2,1.3,0.5c0.2,0.2,0.3,0.5,0.3,0.7
		s-0.1,0.5-0.3,0.7c-0.2,0.2-0.3,0.2-0.5,0.2C162.2,163,162,162.9,161.9,162.7z"/>
	<path d="M167.2,159.1l-1.6,1.8l0.1,0.1c0.6,0.6,1.1,0.7,1.5,0.3c0.2-0.3,0.2-0.6,0-0.9c-0.1-0.2-0.2-0.3-0.2-0.4
		c0-0.1,0.1-0.2,0.2-0.4c0.3-0.4,0.7-0.4,1.1,0c0.4,0.3,0.5,0.7,0.5,1.2c0,0.5-0.2,1-0.6,1.4c-0.5,0.6-1.1,0.8-1.8,0.8
		c-0.7,0-1.4-0.4-2.1-1c-0.8-0.7-1.2-1.4-1.4-2.1c-0.1-0.7,0-1.3,0.5-1.8c0.4-0.5,1-0.7,1.6-0.7c0.6,0,1.2,0.3,1.8,0.9
		c0.2,0.2,0.4,0.4,0.4,0.5S167.4,158.9,167.2,159.1z M164.8,160l0.9-1l-0.1-0.1c-0.2-0.2-0.4-0.3-0.5-0.3c-0.2,0-0.3,0-0.5,0.2
		C164.2,159.2,164.3,159.5,164.8,160z"/>
	<path d="M171.2,153.1c-0.3,0.9-0.3,1.5,0.1,1.8c-0.1-0.3,0-0.6,0.2-0.9c0.2-0.3,0.5-0.5,1-0.6l0.7-0.2l-0.2,0l-0.3-0.1
		c-0.1,0-0.2-0.1-0.3-0.1c-0.2-0.1-0.3-0.3-0.3-0.5s0-0.4,0.1-0.5c0.2-0.2,0.4-0.4,0.7-0.4s0.6,0.1,0.9,0.4c0.5,0.3,0.8,0.8,0.9,1.2
		c0.1,0.5,0.1,0.9-0.2,1.2c-0.3,0.4-0.6,0.5-1,0.6l-0.5,0c-0.4,0-0.7,0.1-0.9,0.3l0.1,0c0.2,0,0.4,0.1,0.6,0.2
		c0.4,0.3,0.5,0.7,0.2,1.1c-0.2,0.3-0.5,0.4-0.9,0.4s-0.8-0.2-1.2-0.5c-0.3-0.3-0.6-0.6-0.9-1c-0.2-0.4-0.4-0.9-0.4-1.3
		c0-0.4,0-0.9,0.1-1.5c0.1-0.4,0.1-0.8,0.1-1c0-0.2-0.1-0.4-0.3-0.5c-0.2-0.1-0.4-0.2-0.6-0.1c-0.2,0-0.4,0.1-0.5,0.3
		c-0.1,0.2-0.2,0.4-0.1,0.6c0,0.1,0,0.1,0.1,0.2c0,0,0.1,0,0.1,0c0.2,0,0.3,0,0.4,0.1c0.2,0.1,0.3,0.3,0.3,0.6c0,0.2,0,0.5-0.2,0.7
		c-0.2,0.3-0.4,0.4-0.7,0.4c-0.3,0-0.6-0.1-0.9-0.3c-0.5-0.4-0.8-0.9-0.8-1.5c-0.1-0.6,0.1-1.2,0.6-1.8c0.5-0.6,1-1,1.6-1.1
		c0.6-0.1,1.2,0,1.8,0.5c0.7,0.6,1,1.3,0.9,2.1C171.5,152.2,171.4,152.6,171.2,153.1z"/>
	<path d="M177.5,150.2c-0.5,0.7-1.2,1.1-2,1.1s-1.9-0.4-3-1.1c-1.1-0.7-1.9-1.5-2.2-2.3c-0.3-0.8-0.3-1.6,0.2-2.3
		c0.5-0.7,1.1-1.1,2-1.1c0.9,0,1.8,0.3,2.9,1c1.2,0.8,2,1.6,2.4,2.4C178.1,148.6,178,149.4,177.5,150.2z M171.8,146.5
		c-0.2,0.3-0.2,0.6,0.1,1c0.2,0.4,0.7,0.8,1.3,1.2l0.1,0.1c0.6,0.4,1.2,0.7,1.7,0.7c0.5,0.1,0.8,0,1-0.3c0.4-0.6-0.1-1.3-1.5-2.2
		C173.1,146.1,172.2,145.9,171.8,146.5z"/>
	<path d="M177.8,142.9c-0.2,1,0,1.6,0.3,1.8c-0.1-0.3-0.1-0.6,0.1-1c0.2-0.3,0.5-0.6,0.9-0.8l0.7-0.3l-0.2,0l-0.3,0
		c-0.1,0-0.2,0-0.3-0.1c-0.2-0.1-0.3-0.3-0.4-0.4c-0.1-0.2,0-0.4,0.1-0.6c0.1-0.3,0.4-0.4,0.7-0.4c0.3,0,0.6,0,1,0.2
		c0.5,0.3,0.9,0.6,1.1,1.1s0.2,0.9,0,1.2c-0.2,0.4-0.5,0.6-0.9,0.7l-0.5,0.1c-0.4,0.1-0.7,0.2-0.9,0.4l0.1,0c0.2,0,0.4,0,0.6,0.1
		c0.5,0.3,0.6,0.6,0.3,1.1c-0.2,0.3-0.5,0.5-0.9,0.5c-0.4,0-0.8-0.1-1.3-0.3c-0.4-0.2-0.7-0.5-1-0.9s-0.5-0.8-0.6-1.2
		c-0.1-0.4-0.1-0.9-0.1-1.5c0-0.4,0-0.8-0.1-1s-0.2-0.4-0.4-0.5c-0.2-0.1-0.4-0.1-0.6-0.1c-0.2,0.1-0.4,0.2-0.5,0.4
		c-0.1,0.2-0.1,0.4-0.1,0.6c0,0.1,0.1,0.1,0.1,0.1c0,0,0.1,0,0.1,0c0.2,0,0.3,0,0.5,0.1c0.2,0.1,0.4,0.3,0.4,0.5s0,0.5-0.1,0.7
		c-0.2,0.3-0.4,0.5-0.7,0.5c-0.3,0.1-0.6,0-0.9-0.2c-0.5-0.3-0.9-0.8-1-1.4c-0.1-0.6,0-1.2,0.3-1.9c0.4-0.7,0.8-1.1,1.5-1.3
		c0.6-0.2,1.2-0.1,1.8,0.2c0.8,0.4,1.2,1.1,1.2,2C177.9,142,177.9,142.5,177.8,142.9z"/>
	<path d="M177.5,136.1l-0.3,0.7l1.3,0.7c0-0.4,0.1-0.8,0.2-1.2c0.3-0.6,0.7-0.9,1.3-1.1c0.6-0.1,1.3-0.1,2,0.3
		c0.8,0.4,1.3,0.9,1.6,1.6s0.2,1.4-0.1,2.2c-0.3,0.6-0.7,1-1.3,1.3c-0.6,0.2-1.1,0.2-1.7,0c-0.3-0.1-0.5-0.3-0.6-0.6
		c-0.1-0.3-0.1-0.5,0-0.8c0.1-0.2,0.3-0.4,0.5-0.4c0.2-0.1,0.5,0,0.7,0.1c0.1,0.1,0.3,0.2,0.4,0.3c0.2-0.1,0.3-0.2,0.5-0.5
		c0.1-0.3,0.1-0.5,0-0.8c-0.1-0.3-0.3-0.5-0.6-0.6c-0.3-0.1-0.6-0.2-0.9-0.1c-0.3,0.1-0.5,0.2-0.6,0.5c-0.1,0.2-0.1,0.4-0.2,0.7
		c0,0.2,0,0.3,0,0.3c0,0.1,0,0.2-0.1,0.3c-0.3,0.6-0.7,0.7-1.3,0.4c-0.2-0.1-0.4-0.2-0.7-0.4c-0.3-0.2-0.6-0.4-0.7-0.4l-0.7-0.4
		c-0.1,0-0.2-0.1-0.4-0.2s-0.4-0.2-0.4-0.3c-0.1-0.1-0.1-0.3,0-0.5l0-0.1c0,0.1,0.1-0.1,0.3-0.5c0.1-0.2,0.2-0.4,0.4-0.7
		c0.3-0.6,0.5-1.2,0.7-1.8l0.1-0.1c0.1-0.3,0.3-0.3,0.6-0.2l0.5,0.3l0.6,0.3c0.5,0.2,0.6,0.5,0.3,1c-0.2,0.4-0.5,0.5-0.8,0.4
		l-0.2-0.1c-0.1-0.1-0.2,0-0.3,0.1C177.7,135.8,177.6,135.9,177.5,136.1L177.5,136.1z"/>
</g>
</svg>
