<?xml version="1.0" encoding="UTF-8"?>
<svg width="752pt" height="752pt" version="1.1" viewBox="0 0 752 752" xmlns="http://www.w3.org/2000/svg">
 <g>
  <path d="m237.54 455.98c-28.047 0-50.777 22.73-50.777 50.777s22.738 50.777 50.777 50.777c28.047 0 50.777-22.73 50.777-50.777s-22.73-50.777-50.777-50.777zm0 84.41c-18.574 0-33.633-15.059-33.633-33.633 0-18.574 15.059-33.633 33.633-33.633 18.574 0 33.633 15.059 33.633 33.633 0 18.578-15.055 33.633-33.633 33.633z"/>
  <path d="m588.98 294.96c-0.94141-6.043-6.6289-10.141-12.648-9.2461l-102.46 15.945c-2.832-2.4609-6.6875-3.75-10.754-3.1523l-288.71 42.145c-9.6523 1.4062-14.637 12.309-9.3906 20.531l46.234 72.477c2.9883 4.6836 8.5156 6.9141 13.98 5.9062 3.9922-0.73828 8.1016-1.1289 12.309-1.1289 27.113 0 50.535 15.793 61.574 38.684 2.6055 5.4023 8.2148 8.6719 14.152 7.8203l76.531-10.992 30.711 60.906c3.7227 7.3789 10.934 11.773 18.941 11.773 1.0742 0 2.1641-0.082031 3.2578-0.24609 9.2695-1.3633 16.309-8.207 17.93-17.43l12.07-68.402c3.5078-2.4453 5.793-6.4648 5.793-10.992l0.003906-126.19 101.23-15.758c6.043-0.94141 10.184-6.6016 9.2461-12.648zm-149.75 227.81-26.297-52.141 36.418-5.2266z"/>
  <path d="m453.57 273.18s-14.957-38.777-50.316-33.234c-25.25 3.9531-57.699-49.395-102.02-45.238-44.316 4.1562-57.242 74.32-79.402 75.707-22.16 1.3867-43.855 21.695-41.547 41.547z"/>
 </g>
</svg>
